<?xml version="1.0" standalone="no"?>
<!DOCTYPE svg PUBLIC "-//W3C//DTD SVG 20010904//EN"
 "http://www.w3.org/TR/2001/REC-SVG-20010904/DTD/svg10.dtd">
<svg version="1.0" xmlns="http://www.w3.org/2000/svg"
 width="1024.000000pt" height="1024.000000pt" viewBox="0 0 1024.000000 1024.000000"
 preserveAspectRatio="xMidYMid meet">
<metadata>
Created by potrace 1.14, written by Peter Selinger 2001-2017
</metadata>
<g transform="translate(0.000000,1024.000000) scale(0.100000,-0.100000)"
fill="#000000" stroke="none">
<path d="M0 7441 l0 -2798 63 -7 c316 -34 458 -57 507 -82 47 -23 70 -60 153
-249 47 -105 112 -248 145 -320 33 -71 94 -211 135 -310 42 -99 88 -207 102
-240 15 -33 72 -168 126 -300 54 -132 122 -298 152 -370 68 -164 122 -297 241
-600 52 -132 123 -303 156 -380 73 -165 152 -371 154 -402 0 -11 4 -19 8 -17
4 3 16 -12 27 -33 10 -21 30 -48 43 -60 38 -36 150 -81 280 -114 128 -32 208
-34 318 -9 25 5 113 19 195 31 169 23 212 35 221 61 5 17 7 17 27 3 31 -22 70
-19 272 19 99 19 213 38 253 41 39 4 74 11 77 15 3 5 1 19 -4 33 -11 28 -78
48 -91 26 -6 -8 -11 -6 -18 8 -7 13 -34 25 -86 37 -68 16 -79 16 -106 3 -24
-12 -30 -13 -30 -2 0 18 -27 38 -40 30 -7 -5 -5 -12 7 -21 10 -7 13 -14 7 -14
-16 0 -47 37 -40 48 10 16 -15 30 -92 51 -44 12 -72 16 -72 9 0 -6 -9 -8 -20
-5 -11 3 -23 1 -26 -4 -8 -14 -24 -10 -24 6 0 8 6 15 13 15 6 0 4 5 -6 11 -10
6 -48 11 -85 11 -72 1 -109 11 -126 33 -10 12 -58 28 -230 79 -30 8 -40 8 -43
-1 -3 -7 -11 -9 -19 -6 -8 3 -14 0 -14 -7 0 -6 -4 -8 -10 -5 -5 3 -10 15 -10
25 0 12 -11 22 -32 29 -212 65 -274 82 -289 78 -11 -3 -16 0 -13 8 4 8 -28 21
-98 41 -57 15 -116 34 -133 42 l-30 13 38 -5 c27 -4 40 -1 44 10 3 7 17 14 32
14 14 0 76 12 136 26 61 14 153 33 205 42 53 9 107 24 121 33 22 15 32 15 125
-2 56 -10 139 -27 185 -38 46 -11 181 -41 299 -67 118 -25 225 -50 237 -55 29
-11 48 -70 33 -100 -17 -31 -30 -80 -20 -74 5 3 11 -4 15 -15 3 -11 10 -20 15
-20 5 0 7 -8 3 -17 -5 -15 -3 -16 8 -6 20 19 34 16 18 -4 -12 -15 -12 -16 3
-11 10 4 19 1 22 -8 3 -8 11 -14 18 -14 9 0 8 3 -2 10 -17 11 -14 11 47 14 43
1 58 -9 26 -17 -16 -4 -16 -5 -1 -6 9 0 20 4 23 9 7 12 61 -49 57 -65 -2 -5 0
-7 4 -2 4 4 17 1 29 -7 12 -8 35 -17 51 -20 16 -2 47 -10 69 -17 54 -16 176
-16 257 0 75 15 125 10 363 -35 82 -16 200 -29 285 -34 80 -3 160 -12 178 -19
29 -12 32 -17 32 -58 0 -42 -2 -45 -43 -63 -38 -17 -554 -124 -1062 -220 -93
-17 -235 -45 -315 -60 -271 -54 -359 -70 -367 -69 -4 1 -26 1 -48 0 -28 -1
-36 -4 -26 -10 11 -7 8 -9 -10 -10 -28 0 -104 -9 -104 -12 0 -1 -9 -3 -20 -5
-11 -2 -63 -13 -115 -25 -61 -13 -96 -17 -98 -10 -2 6 -13 4 -28 -6 -13 -8
-42 -16 -64 -17 -22 0 -40 -4 -40 -8 0 -4 -10 -8 -22 -7 -13 0 -49 -6 -80 -14
-79 -21 -168 -29 -202 -19 -26 7 -30 15 -48 87 -11 44 -26 87 -33 95 -13 15
-91 183 -147 318 -17 40 -32 71 -34 69 -3 -2 1 -17 7 -33 6 -16 17 -48 24 -70
11 -38 11 -41 -5 -37 -18 5 -60 99 -194 428 -35 88 -110 265 -166 393 -93 216
-283 677 -336 817 -37 100 -174 424 -301 715 -67 151 -138 318 -158 370 -50
125 -173 391 -219 474 -39 69 -68 96 -127 115 -29 9 -429 71 -461 71 -4 0 -8
-1033 -8 -2295 l0 -2295 2413 1 c2034 0 2407 3 2377 14 -19 7 -44 14 -55 14
l-20 0 20 -9 c23 -10 5 -13 -19 -4 -9 3 -13 11 -9 17 4 6 0 8 -10 4 -15 -6
-139 34 -161 52 -7 6 -25 12 -41 15 -47 9 -135 47 -129 57 3 5 -1 6 -9 3 -8
-3 -44 8 -81 25 -36 17 -88 36 -116 42 -31 7 -48 15 -43 22 4 6 0 8 -10 4 -15
-6 -192 52 -184 60 3 2 35 -8 73 -21 37 -14 70 -24 72 -22 2 2 -18 12 -45 21
-26 10 -122 47 -212 82 -90 35 -166 62 -168 60 -2 -3 33 -19 77 -37 44 -18 79
-34 77 -37 -4 -4 -258 95 -342 134 -22 10 -73 45 -113 78 -86 70 -96 62 121
95 299 45 824 152 1032 210 39 10 93 22 120 25 28 4 96 15 152 26 84 15 222
24 184 11 -17 -6 -2 -22 21 -22 11 0 22 8 25 19 5 18 7 18 49 4 49 -17 49 -16
32 -42 -9 -15 -9 -23 1 -35 17 -20 41 -21 41 0 0 14 2 14 22 0 25 -18 38 -20
38 -8 0 5 -12 14 -26 21 -15 6 -24 14 -22 17 3 2 30 -7 62 -21 31 -14 63 -25
71 -25 20 0 29 -19 15 -35 -8 -10 -6 -17 12 -29 33 -23 79 -21 85 4 6 23 6 23
72 8 30 -7 51 -17 51 -25 0 -17 -15 -17 -44 3 -29 18 -39 7 -23 -26 24 -47
107 -49 107 -3 0 10 5 13 18 8 9 -4 32 -11 50 -17 34 -9 40 -36 7 -30 -25 5
-14 -20 15 -35 27 -13 50 -2 50 25 0 18 45 13 103 -12 39 -16 53 -48 17 -39
-11 3 -20 1 -20 -4 0 -19 25 -33 58 -33 29 0 33 3 30 22 -2 13 2 23 7 23 28
-1 95 -18 95 -23 0 -4 -14 -15 -30 -24 -33 -19 -40 -48 -11 -48 10 0 35 -7 54
-15 53 -22 88 -20 94 6 5 19 11 21 51 15 25 -3 53 -6 63 -6 11 0 19 -7 19 -15
0 -8 -4 -15 -10 -15 -5 0 -10 -13 -10 -30 0 -24 5 -31 28 -36 15 -3 32 -7 39
-9 6 -2 17 2 23 10 9 11 7 12 -11 8 -20 -6 -21 -3 -15 23 4 16 9 31 12 33 10
10 187 -45 214 -67 3 -2 -3 -10 -13 -17 -16 -12 -14 -14 25 -20 33 -6 53 -18
86 -52 37 -38 42 -41 40 -21 -6 42 -137 146 -218 173 -30 11 -60 22 -65 27 -6
4 -33 12 -60 18 -28 6 -74 18 -103 26 l-52 15 20 26 c11 14 20 32 20 41 0 14
17 14 65 -2 11 -4 -11 9 -49 28 -78 40 -85 39 -147 -21 l-36 -34 -56 18 c-31
10 -57 20 -57 23 0 11 62 45 77 42 8 -2 27 0 42 4 l26 7 -30 12 c-41 18 -84 8
-122 -28 -32 -30 -33 -30 -73 -17 -23 7 -48 19 -57 25 -15 11 -11 16 26 41
l43 28 -22 18 c-23 18 -66 25 -56 9 3 -5 -12 -25 -33 -44 -38 -34 -41 -35 -81
-25 -53 14 -50 34 10 67 43 24 44 25 20 32 -41 11 -45 10 -86 -26 -21 -19 -44
-35 -50 -35 -20 0 -84 30 -84 39 0 5 15 19 33 30 28 17 45 19 108 16 l74 -5
-80 14 c-84 14 -126 6 -156 -30 -12 -15 -59 -20 -59 -6 0 18 48 52 85 60 l40
9 -29 12 c-28 11 -32 9 -76 -34 l-47 -46 -33 18 c-19 11 -35 24 -36 31 -1 7 0
8 3 2 3 -7 18 -1 38 15 19 14 40 25 47 25 7 1 1 7 -13 15 -18 10 -35 11 -55 6
l-29 -9 25 -10 25 -11 -24 0 c-14 -1 -33 -9 -43 -18 -17 -15 -21 -15 -54 0
-40 19 -37 31 14 80 23 22 36 27 54 22 22 -6 22 -6 4 9 -11 9 -25 16 -30 16
-21 0 -77 -40 -94 -68 -16 -26 -19 -27 -54 -17 -51 14 -53 20 -21 43 88 62
254 80 392 41 72 -20 77 -20 155 -5 126 25 154 35 161 56 8 24 58 41 149 49
l71 6 9 43 10 42 100 0 c56 0 233 7 394 15 267 14 358 22 668 56 86 9 106 8
130 -4 43 -22 360 -111 509 -142 142 -30 385 -87 591 -138 109 -27 135 -37
155 -60 13 -16 51 -43 84 -60 52 -28 60 -36 60 -61 0 -30 0 -30 -134 -63 -101
-26 -137 -31 -145 -22 -8 8 -5 10 12 4 13 -4 22 -2 22 4 0 6 9 11 21 11 12 0
17 4 13 11 -3 6 -17 8 -33 4 -14 -4 -37 -9 -51 -12 -14 -2 -83 -20 -155 -39
-71 -20 -139 -37 -150 -39 -23 -5 -42 -10 -240 -64 -168 -45 -440 -133 -494
-160 -31 -15 -55 -23 -139 -47 -7 -2 -10 -9 -6 -15 4 -8 3 -9 -4 -5 -7 4 -66
-11 -132 -33 -90 -30 -126 -38 -143 -31 -12 5 -16 9 -8 9 8 1 12 3 10 6 -6 5
-120 -27 -159 -44 -23 -10 -23 -11 -2 -7 12 2 22 0 22 -5 0 -17 -49 -9 -54 9
-3 10 -20 23 -38 30 -41 15 -48 9 -8 -8 22 -9 30 -19 30 -37 0 -20 -4 -24 -17
-18 -10 4 -56 10 -103 12 -76 4 -87 3 -107 -16 -13 -12 -42 -30 -65 -40 -83
-35 -260 -91 -269 -85 -6 3 -19 -2 -30 -12 -10 -9 -34 -17 -52 -17 -36 0 -183
-45 -152 -47 24 -2 5 -9 -145 -50 l-105 -28 698 -1 c449 -1 697 2 697 9 0 5
-10 12 -23 15 -15 4 -28 21 -41 51 -12 30 -23 43 -32 40 -8 -3 -14 -1 -14 4 0
6 -9 10 -21 10 -13 0 -20 6 -18 18 3 34 -1 42 -25 42 -13 0 -26 6 -29 14 -4
11 -14 12 -42 6 -67 -15 -25 4 118 53 351 121 680 220 820 246 41 7 47 6 47
-9 0 -28 24 -40 107 -54 51 -9 66 -14 43 -15 -29 -1 -36 -5 -37 -23 -3 -31
-24 -69 -35 -62 -5 4 -9 -2 -8 -12 4 -34 0 -43 -20 -49 -11 -3 -20 -15 -20
-26 0 -12 -7 -19 -18 -19 -13 0 -22 -12 -31 -42 -7 -24 -17 -51 -22 -60 -5
-10 -9 -27 -9 -38 0 -11 -6 -20 -12 -21 -7 0 -28 -18 -47 -40 l-33 -39 1286 0
1286 0 0 654 0 654 -22 5 c-13 3 -54 9 -92 13 -44 4 -63 10 -55 15 8 5 -6 6
-35 2 -37 -5 -47 -3 -42 6 5 7 14 10 22 7 15 -6 64 13 64 24 0 7 50 21 85 24
22 3 60 19 67 30 4 6 7 650 7 1431 -1 810 -5 1390 -10 1350 -41 -346 -76 -511
-134 -630 -24 -49 -53 -101 -66 -115 -12 -14 -34 -38 -48 -54 -14 -16 8 -2 50
32 74 59 98 86 153 166 14 21 26 34 26 28 0 -35 -142 -341 -192 -412 -52 -76
-50 -84 14 -59 29 11 59 25 65 31 32 26 8 -18 -52 -97 -36 -46 -65 -88 -65
-92 1 -5 26 19 57 52 51 55 54 57 32 20 -52 -90 -70 -113 -135 -176 -60 -57
-201 -169 -244 -194 -13 -8 -13 -7 0 10 8 11 -3 6 -25 -11 -38 -30 -176 -104
-193 -104 -4 0 16 25 45 56 29 30 80 93 113 139 92 128 231 416 230 478 -1 19
-4 17 -20 -13 -51 -92 -59 -84 -20 21 53 145 75 234 105 434 13 94 34 220 45
280 35 198 24 375 -36 575 -19 63 -41 153 -49 199 -8 46 -17 86 -19 88 -6 6
-14 -24 -22 -87 -3 -30 -12 -63 -19 -73 -12 -17 -15 -12 -25 40 -13 62 -75
232 -91 248 -14 14 -11 3 21 -86 17 -45 29 -84 27 -86 -2 -2 -25 47 -51 109
-26 62 -63 142 -82 178 l-35 65 7 -103 c3 -57 2 -174 -2 -260 l-8 -157 -12 79
c-26 162 -103 372 -164 446 -11 14 -44 93 -74 176 -30 83 -61 164 -71 180 -9
16 -13 20 -10 9 3 -11 9 -49 12 -84 7 -75 -5 -76 -32 -4 -10 26 -33 77 -51
113 -97 195 -133 313 -141 466 -5 85 -2 112 15 170 34 113 114 228 216 311
l39 31 -44 -9 c-65 -15 -214 -76 -292 -120 -38 -22 -71 -39 -73 -39 -12 0 -1
39 23 79 42 73 90 132 133 164 23 16 39 31 37 33 -4 4 -230 -100 -322 -148
l-40 -21 30 33 c17 17 53 42 80 55 78 36 103 60 35 34 -254 -96 -497 -312
-581 -514 l-24 -59 -3 36 c-2 20 4 51 13 68 24 47 12 46 -20 -1 -28 -40 -29
-40 -38 -17 -9 23 -3 189 9 238 5 23 5 24 -7 5 -7 -11 -32 -62 -55 -114 -52
-115 -67 -134 -59 -71 4 25 9 51 11 58 2 8 -3 12 -13 10 -17 -3 -97 -152 -108
-201 -9 -39 -19 -25 -44 59 -32 109 -27 158 34 299 16 35 19 38 25 20 5 -11 6
-60 4 -110 l-5 -90 33 65 c53 103 136 239 193 315 99 132 315 347 291 290 -12
-28 -62 -164 -71 -195 -6 -20 6 -12 57 36 106 102 236 176 429 243 63 21 194
76 292 121 98 45 181 79 184 76 4 -3 -38 -50 -93 -104 l-100 -98 55 9 c124 20
410 -15 578 -72 83 -28 258 -103 313 -135 25 -14 48 -26 53 -26 4 0 7 785 7
1745 l0 1745 -5120 0 -5120 0 0 -2799z m5068 2242 c92 -70 202 -153 244 -185
42 -32 166 -115 275 -183 109 -69 245 -161 302 -203 57 -42 107 -77 110 -77
23 -2 132 -46 213 -86 116 -58 147 -78 313 -198 259 -188 373 -302 520 -521
43 -63 89 -128 104 -143 36 -39 133 -95 195 -113 l51 -14 -80 4 c-44 2 -88 7
-99 11 -17 8 -17 7 -1 -25 33 -63 73 -195 100 -325 14 -71 29 -133 31 -137 8
-13 23 -9 42 10 16 16 17 12 18 -83 1 -79 6 -117 27 -180 50 -155 78 -281 89
-404 12 -124 12 -125 46 -155 52 -45 189 -211 239 -289 98 -150 183 -381 183
-493 0 -22 -11 -61 -23 -89 l-24 -50 -6 71 c-6 78 -24 131 -62 180 -38 49
-191 121 -296 138 -31 5 -111 -12 -185 -41 -10 -4 -13 11 -13 69 0 40 -4 170
-9 288 -9 183 -14 230 -37 315 -15 55 -33 120 -39 145 l-12 45 -9 -30 c-4 -16
-11 -77 -14 -134 -7 -115 -15 -128 -55 -88 -15 15 -27 21 -29 14 -2 -7 -4 79
-3 191 1 112 -1 194 -4 183 -5 -22 -23 -17 -33 9 -3 8 -6 1 -6 -17 -1 -28 -6
-33 -42 -45 l-40 -13 20 -24 c27 -31 26 -45 -4 -61 -14 -7 -25 -19 -25 -27 0
-9 -13 -13 -40 -13 -29 0 -40 -4 -40 -15 0 -8 5 -15 10 -15 6 0 10 -18 10 -40
l0 -40 -41 0 -41 0 3 -47 c2 -30 -1 -48 -9 -51 -7 -2 -12 1 -12 7 0 6 -7 11
-15 11 -11 0 -15 -11 -15 -40 0 -27 -4 -40 -14 -40 -7 0 -16 -9 -19 -20 -3
-12 -11 -18 -20 -15 -16 7 -77 -40 -77 -58 -1 -7 -15 -21 -32 -32 -17 -11 -36
-33 -41 -50 -5 -16 -15 -36 -21 -44 -9 -11 -12 -9 -17 10 -3 13 -11 23 -18 21
-7 -1 -11 3 -9 9 2 7 14 13 26 14 18 1 21 -2 16 -19 -4 -17 -3 -18 5 -6 13 19
14 80 2 80 -6 0 -13 -4 -16 -10 -3 -5 -19 -10 -35 -10 -29 0 -46 22 -33 43 3
7 2 9 -2 4 -11 -9 -137 221 -129 235 4 6 2 8 -4 4 -14 -8 -121 192 -203 380
-33 76 -76 173 -96 214 -19 41 -80 174 -135 295 -93 206 -118 254 -118 229 0
-14 68 -178 120 -289 23 -49 51 -110 62 -135 30 -63 259 -593 262 -605 2 -10
88 -181 120 -240 9 -16 16 -38 16 -48 0 -10 5 -15 10 -12 10 6 14 -7 11 -33
-1 -6 3 -20 8 -30 8 -13 10 -14 11 -2 0 8 7 2 15 -14 18 -35 19 -42 2 -28 -10
8 -13 6 -14 -9 -1 -11 2 -17 8 -14 12 8 11 1 -2 -29 -9 -18 -9 -33 -1 -53 14
-37 26 -126 13 -98 -9 18 -10 17 -10 -7 -1 -15 -5 -29 -9 -32 -5 -3 -5 20 -1
51 8 55 4 83 -11 83 -5 0 -26 -15 -48 -34 -32 -26 -38 -36 -29 -46 9 -10 9
-11 -2 -5 -7 4 -16 2 -21 -5 -5 -8 -9 -7 -13 4 -5 11 1 20 18 28 42 19 32 40
-17 36 -30 -2 -42 -7 -40 -16 2 -9 -8 -6 -27 8 -41 28 -45 37 -24 49 10 6 13
11 7 11 -5 0 -14 -4 -20 -9 -10 -11 -99 50 -99 68 0 5 -4 13 -9 18 -5 5 -6 3
-2 -4 14 -24 -7 -13 -63 35 -30 26 -62 53 -71 60 -64 53 -161 131 -250 200
-58 45 -130 102 -160 126 -88 70 -365 258 -490 333 -63 38 -203 116 -310 173
-194 103 -392 213 -462 256 -128 81 -412 203 -600 259 -53 16 -94 33 -91 39 3
5 1 6 -6 2 -17 -11 -114 15 -99 27 9 6 6 7 -9 4 -13 -3 -20 0 -17 7 2 6 18 11
34 12 17 1 38 8 48 17 10 9 33 20 50 23 18 4 32 13 32 20 0 8 4 14 8 14 12 0
43 70 37 81 -4 5 1 9 10 9 9 0 21 4 28 10 59 48 77 60 90 60 8 0 18 7 21 15 3
9 18 21 34 28 30 13 92 61 92 72 0 15 47 44 72 45 15 0 38 11 52 25 16 15 36
25 55 25 35 0 61 9 61 21 0 5 -8 9 -17 9 -14 0 -15 2 -4 13 11 10 14 10 18 0
3 -7 8 -13 13 -13 12 0 70 57 70 69 0 6 10 11 23 11 13 0 29 6 36 13 11 10 14
10 18 0 7 -19 19 -16 47 12 19 19 35 25 71 25 33 0 45 4 45 15 0 23 80 21 81
-2 0 -16 1 -16 8 1 5 14 10 16 15 7 4 -6 3 -17 -2 -24 -16 -21 -21 -56 -6 -50
7 2 10 11 8 18 -3 8 3 22 15 31 11 10 18 21 15 26 -5 7 3 10 22 7 4 0 10 4 13
9 7 12 113 53 119 47 3 -2 -4 -7 -14 -11 -88 -30 -157 -83 -152 -117 6 -37
113 -66 302 -82 43 -4 75 -10 70 -13 -5 -4 -10 -17 -12 -29 -4 -26 -10 -24
165 -53 71 -12 162 -20 220 -19 l98 1 -124 14 c-145 17 -294 48 -299 63 -2 6
-11 11 -20 11 -13 0 -13 3 -4 12 10 10 17 10 33 0 16 -10 19 -10 13 -1 -5 9
-1 11 13 7 12 -3 50 0 84 7 35 7 55 13 44 14 -46 3 -134 57 -186 115 l-54 59
60 -7 60 -8 -55 52 c-30 28 -46 48 -35 44 97 -35 130 -45 146 -42 16 3 13 9
-21 43 -35 36 -53 64 -31 51 4 -3 3 12 -2 34 -7 25 -14 35 -19 27 -9 -14 -10
-5 -2 17 3 9 10 13 15 10 5 -3 9 0 9 5 0 6 -5 11 -11 11 -6 0 -8 7 -5 16 4 9
1 23 -5 31 -17 20 -2 29 24 14 22 -14 22 -14 3 7 -10 12 -22 20 -25 17 -4 -2
-7 5 -7 16 0 12 7 19 20 19 11 0 16 -3 13 -7 -8 -8 42 -43 62 -43 8 0 4 8 -10
20 -29 24 -11 26 39 4 69 -30 92 -34 92 -18 0 8 5 12 10 9 6 -3 10 -1 10 5 0
6 4 9 8 6 10 -6 9 40 -1 50 -4 5 -5 0 -1 -10 6 -15 4 -17 -6 -11 -10 6 -12 4
-7 -8 3 -10 2 -17 -3 -17 -13 0 -13 12 0 45 l10 27 19 -23 c10 -13 16 -29 14
-37 -3 -7 -1 -12 5 -10 9 3 34 -27 179 -220 81 -109 186 -331 217 -461 34
-140 34 -139 -11 -146 -101 -17 -143 -27 -143 -36 0 -5 26 -9 58 -9 58 0 59
-1 120 -60 34 -33 75 -80 92 -105 41 -59 64 -74 211 -134 70 -29 161 -72 203
-96 42 -24 76 -39 76 -33 0 18 -23 53 -60 93 -38 40 -66 105 -57 129 3 8 40
33 81 56 42 23 76 46 76 52 0 6 7 5 18 -3 15 -13 16 -12 3 4 -7 9 -23 18 -35
18 -16 1 -17 2 -4 6 9 2 15 10 12 18 -3 7 -1 16 5 20 6 3 11 -1 11 -10 0 -9 6
-15 13 -12 6 2 11 17 10 33 -2 25 -1 26 8 11 6 -10 8 -25 5 -33 -3 -8 0 -14 7
-13 38 5 67 -2 67 -17 0 -18 32 -15 36 4 1 7 0 8 -3 2 -2 -5 -9 -10 -15 -10
-6 0 -3 11 6 25 18 27 14 45 -9 45 -16 0 -26 24 -19 48 5 14 4 14 -4 3 -14
-20 -20 51 -9 97 4 18 4 39 -1 49 -8 13 -11 10 -20 -18 -6 -19 -12 -42 -14
-52 -3 -17 -45 59 -90 163 -15 34 -16 31 -12 -75 5 -126 -1 -118 -41 60 -27
124 -54 219 -60 213 -2 -2 5 -36 15 -75 21 -80 35 -163 27 -163 -3 0 -15 33
-27 73 -12 39 -32 90 -45 113 -37 63 -217 244 -243 244 -26 0 -28 -17 -6 -48
9 -13 13 -26 10 -29 -14 -15 -71 32 -236 192 -178 174 -263 251 -450 410 -58
50 -181 163 -273 253 -104 102 -173 162 -182 158 -7 -2 -15 0 -17 5 -2 6 -13
3 -26 -8 -14 -11 -26 -37 -32 -72 -15 -80 -12 -302 6 -416 8 -55 17 -121 21
-146 l5 -46 -83 -6 c-155 -11 -405 -113 -619 -251 -130 -84 -122 -61 20 57
136 114 171 142 233 181 32 21 57 40 55 42 -10 10 -145 -53 -305 -143 -278
-156 -490 -300 -611 -417 -146 -140 -172 -182 -243 -384 -22 -63 -52 -112 -70
-112 -5 0 -3 12 5 28 7 15 18 44 24 65 9 32 8 37 -7 37 -9 0 -27 -9 -38 -20
-21 -18 -167 -249 -251 -395 -73 -128 -202 -386 -202 -405 0 -23 22 -18 59 14
16 14 9 -2 -21 -44 -45 -65 -133 -280 -191 -470 -32 -103 -81 -325 -98 -439
-7 -46 -15 -79 -17 -73 -6 20 29 233 69 422 22 102 55 257 74 345 58 279 115
416 266 640 52 77 140 210 194 295 131 204 227 323 409 508 249 254 393 357
721 517 251 123 362 168 482 196 l89 21 -4 130 c-3 71 1 180 8 241 23 213 36
215 268 40z m4924 -431 c3 -416 1 -472 -12 -470 -13 3 -15 59 -15 428 -1 443
2 537 16 523 4 -4 9 -221 11 -481z m-413 360 l40 -38 -5 -885 c-3 -486 -7
-908 -10 -937 -8 -75 -54 -126 -127 -142 -56 -11 -976 -90 -1057 -90 -59 0
-97 28 -109 80 -8 36 -6 326 7 1245 8 553 7 541 65 596 41 39 73 48 303 84
126 20 344 55 484 79 140 25 281 45 312 45 53 1 60 -2 97 -37z m-1999 -40 l65
-27 3 -123 c2 -76 6 -121 12 -117 12 7 13 -5 2 -22 -6 -9 -132 -33 -178 -33
-12 0 -14 30 -14 175 l0 175 23 -1 c12 0 51 -13 87 -27z m-2615 -58 c-8 -16
-15 -23 -15 -16 0 13 22 53 27 48 2 -2 -3 -16 -12 -32z m137 -89 c5 -11 -4 -4
-20 15 -17 19 -31 30 -32 25 0 -6 5 -16 10 -23 7 -9 7 -9 -2 -2 -7 6 -13 23
-13 37 l-1 25 24 -28 c12 -16 28 -38 34 -49z m-25 -27 c-3 -8 -6 -5 -6 6 -1
11 2 17 5 13 3 -3 4 -12 1 -19z m3173 -115 c0 -76 -4 -144 -9 -151 -7 -12
-197 -52 -248 -52 l-24 0 3 147 3 147 115 22 c179 34 160 47 160 -113z m-800
81 c0 -8 -4 -14 -10 -14 -5 0 -10 9 -10 21 0 11 5 17 10 14 6 -3 10 -13 10
-21z m-2295 -5 c11 -16 1 -19 -13 -3 -7 8 -8 14 -3 14 5 0 13 -5 16 -11z m36
-46 c13 -16 12 -17 -3 -4 -10 7 -18 15 -18 17 0 8 8 3 21 -13z m4517 -19 c-4
-24 -24 -29 -32 -8 -8 20 13 49 27 35 5 -5 7 -17 5 -27z m-4451 -64 c22 -25
22 -26 3 -27 -11 -1 -22 2 -25 8 -4 5 2 6 12 2 17 -6 17 -5 1 14 -10 11 -18
23 -18 28 0 5 1 6 3 4 1 -2 12 -15 24 -29z m90 -147 c-4 -3 -11 6 -17 21 -5
15 -14 24 -20 21 -5 -3 -7 0 -4 8 3 8 1 18 -5 22 -6 3 -11 12 -11 18 0 7 14
-10 31 -36 18 -26 29 -50 26 -54z m2183 83 c0 -8 -22 -18 -62 -25 -35 -7 -73
-14 -86 -17 l-22 -4 2 -318 3 -317 45 -1 c67 -1 70 -2 70 -28 0 -26 -6 -29
-102 -42 -42 -5 -48 -4 -49 12 -5 102 5 711 11 718 10 10 119 33 163 35 17 1
27 -4 27 -13z m-3605 -126 c4 -6 -11 -10 -37 -9 -33 0 -38 2 -23 9 28 12 53
12 60 0z m1402 -16 c-3 -3 -12 -4 -19 -1 -8 3 -5 6 6 6 11 1 17 -2 13 -5z m-7
-24 c0 -10 -38 -1 -45 10 -2 4 7 5 20 2 14 -2 25 -8 25 -12z m-503 -232 c-3
-8 -6 -5 -6 6 -1 11 2 17 5 13 3 -3 4 -12 1 -19z m2313 -72 l0 -73 -31 -7
c-17 -3 -47 -6 -65 -6 l-34 0 0 74 c0 84 0 84 78 85 l52 1 0 -74z m-3590 14
c57 -6 106 -12 107 -14 2 -2 -30 -33 -72 -71 l-75 -67 -228 6 c-125 3 -272 13
-327 22 -87 13 -183 23 -262 25 -13 1 -23 4 -23 9 0 4 -24 6 -52 4 -41 -3 -47
-1 -28 5 20 8 14 9 -30 8 -48 0 -213 24 -450 67 -99 17 -114 10 -108 -54 3
-26 19 -78 37 -115 41 -88 34 -96 -9 -9 -22 46 -34 86 -38 129 -6 81 4 87 108
75 293 -36 577 -51 933 -49 202 1 367 3 367 4 0 2 -18 14 -40 26 -22 13 -40
26 -40 29 0 4 28 1 63 -6 34 -8 109 -18 167 -24z m1296 15 c-7 -19 -57 -39
-65 -27 -3 5 -13 12 -21 15 -8 4 2 4 23 1 28 -5 36 -3 34 7 -2 8 -2 11 0 7 8
-14 23 -8 23 9 0 9 3 14 6 10 4 -3 4 -13 0 -22z m-90 -50 c-11 -8 -22 -12 -25
-9 -6 6 19 24 34 24 6 -1 1 -7 -9 -15z m-2482 -144 c-2 -3 -12 3 -22 13 -16
17 -16 18 5 5 12 -7 20 -15 17 -18z m86 -38 c0 -3 -7 -3 -15 1 -8 3 -15 0 -15
-6 0 -6 -3 -9 -6 -5 -11 10 6 26 21 20 8 -3 15 -7 15 -10z m5655 -12 c7 -12
-12 -24 -25 -16 -11 7 -4 25 10 25 5 0 11 -4 15 -9z m-5512 -57 c26 -19 19
-17 -45 14 -27 12 -48 25 -48 27 0 8 68 -22 93 -41z m-63 6 c8 -5 11 -10 5
-10 -5 0 -17 5 -25 10 -8 5 -10 10 -5 10 6 0 17 -5 25 -10z m124 -35 c8 -8 21
-15 29 -15 14 0 98 -39 84 -40 -4 0 -24 7 -44 15 -43 18 -62 14 -60 -13 0 -11
6 -18 13 -15 7 3 21 0 31 -7 15 -10 14 -10 -9 -5 -16 3 -28 1 -28 -5 0 -5 13
-10 29 -10 21 0 30 6 34 21 5 17 9 19 26 10 26 -14 34 -14 25 1 -5 8 -2 9 12
3 10 -4 67 -23 125 -41 146 -45 332 -117 336 -130 2 -6 -12 -33 -31 -60 -20
-27 -67 -98 -106 -159 -39 -60 -97 -147 -128 -191 -31 -45 -69 -102 -84 -128
-23 -39 -32 -46 -58 -46 -38 0 -89 21 -154 63 l-49 31 69 13 c38 7 90 15 117
19 45 7 66 24 29 24 -40 0 -122 55 -217 146 -65 62 -88 88 -64 74 35 -19 172
-41 156 -24 -4 4 -29 20 -54 34 -46 25 -75 61 -38 46 11 -4 2 12 -21 38 -21
24 -47 45 -56 45 -19 1 -26 21 -8 21 6 0 10 7 10 15 0 8 8 15 18 15 12 0 14 2
4 8 -8 6 -12 24 -10 49 2 32 6 39 16 31 9 -8 9 -14 1 -24 -6 -7 -9 -19 -6 -26
3 -9 7 -6 13 7 4 11 12 23 18 28 7 5 6 10 -4 17 -13 9 -13 10 0 9 8 0 24 -4
35 -9 17 -7 17 -9 3 -9 -10 -1 -18 -5 -18 -10 0 -8 14 -9 65 -2 6 1 -1 10 -14
20 -43 33 -36 49 20 46 27 -1 56 3 66 10 15 11 15 13 -6 20 -12 4 -25 4 -28 1
-4 -3 2 -6 12 -6 11 0 15 -3 10 -8 -16 -14 -105 -2 -105 14 0 8 -6 14 -14 14
-9 0 -15 15 -18 45 -3 48 2 54 26 30z m1122 -24 c-8 -9 -20 -29 -26 -45 -6
-16 -13 -26 -16 -24 -7 8 28 78 38 78 5 0 6 5 2 12 -5 7 -3 8 5 4 9 -6 9 -12
-3 -25z m-1062 -26 c15 -11 16 -15 5 -15 -8 0 -24 7 -35 15 -14 11 -15 14 -4
14 8 0 24 -6 34 -14z m5471 -35 c0 -39 -3 -44 -28 -51 -16 -4 -52 -9 -80 -10
-50 -3 -52 -2 -55 25 -2 16 1 33 7 39 12 12 129 45 146 42 6 -1 10 -21 10 -45z
m-5799 -38 c-4 -3 -11 0 -16 8 -15 24 -11 33 6 15 9 -9 13 -19 10 -23z m1554
18 c0 -5 -2 -10 -4 -10 -3 0 -8 5 -11 10 -3 6 -1 10 4 10 6 0 11 -4 11 -10z
m-231 -40 c-24 -43 -59 -80 -59 -63 0 5 9 18 19 27 11 10 25 31 31 47 7 16 17
29 22 29 5 0 -1 -18 -13 -40z m39 -45 c-3 -3 -9 2 -12 12 -6 14 -5 15 5 6 7
-7 10 -15 7 -18z m2785 0 c-3 -9 -8 -14 -10 -11 -3 3 -2 9 2 15 9 16 15 13 8
-4z m-4070 -35 c5 -20 27 -29 27 -11 0 15 35 1 48 -20 10 -16 10 -23 -3 -35
-13 -14 -18 -12 -46 18 -36 39 -53 68 -41 68 6 0 12 -9 15 -20z m4147 6 c0 -3
-4 -8 -10 -11 -5 -3 -10 -1 -10 4 0 6 5 11 10 11 6 0 10 -2 10 -4z m41 -68 c6
1 7 -2 4 -8 -8 -13 -45 16 -45 34 0 6 8 2 16 -9 8 -11 20 -19 25 -17z m-134
-20 c-3 -7 -5 -2 -5 12 0 14 2 19 5 13 2 -7 2 -19 0 -25z m-2827 -49 c0 -5 -4
-9 -10 -9 -5 0 -10 7 -10 16 0 8 5 12 10 9 6 -3 10 -10 10 -16z m-129 -32
c-10 -9 -11 -8 -5 6 3 10 9 15 12 12 3 -3 0 -11 -7 -18z m99 13 c0 -5 -4 -10
-10 -10 -5 0 -10 5 -10 10 0 6 5 10 10 10 6 0 10 -4 10 -10z m40 -90 c271 -68
503 -165 805 -337 116 -66 277 -155 360 -197 394 -205 645 -372 1070 -715 72
-57 141 -116 155 -129 14 -14 81 -70 150 -125 154 -123 191 -157 183 -170 -3
-6 -1 -7 6 -3 21 14 198 -184 184 -206 -4 -7 -1 -8 7 -3 9 5 10 2 5 -14 -4
-12 -2 -21 4 -21 6 0 11 -4 11 -10 0 -5 19 -40 42 -77 115 -189 160 -301 161
-405 0 -112 -7 -119 -391 -374 -201 -133 -214 -141 -517 -294 -251 -126 -480
-261 -567 -334 -20 -17 -49 -41 -65 -53 -178 -137 -278 -225 -406 -357 -66
-66 -110 -107 -99 -91 30 46 244 250 361 345 58 47 150 123 205 169 168 139
411 287 756 458 180 89 253 132 370 218 47 34 114 75 150 92 36 16 80 43 99
58 l34 29 -6 96 c-7 111 -29 184 -98 325 -47 97 -72 132 -151 221 -21 22 -36
44 -33 47 3 4 2 5 -2 2 -10 -8 -233 217 -226 228 3 6 2 7 -4 4 -5 -3 -23 6
-40 21 -123 111 -474 390 -646 514 -389 281 -488 339 -1203 710 -327 169 -516
244 -727 289 -49 10 -93 22 -98 25 -6 3 -4 15 6 30 8 13 12 24 9 24 -4 0 1 9
11 20 10 11 25 18 34 16 9 -3 54 -15 101 -26z m6300 -54 c0 -13 -20 -26 -41
-26 -5 0 -9 9 -9 20 0 15 7 20 25 20 15 0 25 -6 25 -14z m-7650 -203 c0 -21 3
-56 7 -77 4 -28 3 -37 -5 -32 -7 4 -12 32 -12 67 0 65 0 64 -67 48 -45 -12
-45 -12 -40 -50 3 -21 14 -50 26 -65 18 -23 21 -40 21 -128 0 -61 -4 -106 -11
-113 -8 -8 -6 -14 9 -22 43 -23 56 -2 65 104 2 22 4 0 3 -50 l-1 -90 -89 -8
c-49 -4 -91 -5 -95 -2 -3 4 -7 100 -9 215 l-4 209 24 6 c37 9 120 23 151 24
25 1 27 -2 27 -36z m7716 -28 c21 -13 21 -18 16 -267 -2 -139 -5 -254 -6 -255
-1 -1 -20 7 -44 17 l-42 19 0 257 0 256 28 -7 c15 -3 36 -12 48 -20z m-270
-106 c14 -23 -24 -37 -125 -47 -58 -6 -109 -8 -114 -5 -19 11 18 21 109 28 71
5 94 10 94 21 0 17 26 19 36 3z m-816 -244 c0 -8 -4 -15 -10 -15 -5 0 -10 7
-10 15 0 8 5 15 10 15 6 0 10 -7 10 -15z m-6476 -27 c-9 -14 -23 2 -17 18 4
12 8 13 14 3 4 -7 5 -17 3 -21z m5365 -148 c-2 -79 -2 -81 -9 -35 -12 75 -12
153 0 135 5 -8 9 -53 9 -100z m-57 -62 c-2 -84 -7 -156 -11 -159 -3 -4 -20
-10 -38 -14 -25 -5 -34 -2 -42 12 -12 24 -4 36 34 48 30 11 30 11 31 90 1 44
-3 97 -9 118 -9 31 -8 40 4 48 34 21 36 11 31 -143z m150 104 c11 -14 10 -15
-5 -9 -11 4 -30 10 -43 13 -13 3 -24 12 -24 20 0 17 53 0 72 -24z m1838 -16
c0 -8 -14 -19 -31 -25 -39 -14 -34 -14 -54 5 -13 14 -14 19 -3 25 22 15 88 11
88 -5z m-2537 -106 c9 0 9 -2 0 -8 -6 -4 -13 -23 -16 -42 -2 -21 -4 -11 -4 25
0 33 1 52 4 43 2 -10 10 -18 16 -18z m-36 -37 c-3 -10 -5 -4 -5 12 0 17 2 24
5 18 2 -7 2 -21 0 -30z m-2264 -88 c99 -29 137 -45 137 -57 0 -4 -15 -8 -32
-8 -87 0 -195 -48 -271 -118 -60 -57 -205 -227 -220 -259 -6 -13 -13 -23 -17
-23 -16 0 -33 87 -34 173 -1 84 2 97 29 145 16 30 51 74 78 98 86 77 183 91
330 49z m-4460 -119 c50 -8 133 -19 182 -26 50 -6 182 -27 295 -45 113 -19
320 -52 460 -74 311 -50 841 -140 855 -145 6 -3 -1 -5 -15 -5 -33 -1 -186 22
-735 113 -253 42 -615 99 -804 126 -189 27 -349 54 -355 60 -14 14 4 13 117
-4z m-215 -26 c-23 -31 -28 -35 -28 -22 0 9 38 52 46 52 2 0 -5 -13 -18 -30z
m3368 -100 c37 -16 45 -27 87 -113 26 -53 47 -101 47 -106 0 -6 -15 -2 -33 9
-68 40 -254 112 -304 117 -50 5 -53 7 -53 33 0 62 62 93 165 83 28 -3 68 -13
91 -23z m-3102 -10 c235 -38 717 -110 1206 -180 272 -39 534 -78 582 -86 l87
-16 7 -44 c5 -37 3 -48 -12 -59 -15 -11 -16 -17 -6 -23 13 -9 26 -150 37 -397
4 -77 9 -142 12 -145 3 -3 3 32 2 77 -2 45 -1 76 2 70 9 -16 43 -492 37 -509
-3 -7 -9 39 -13 102 -14 210 -24 259 -19 90 2 -85 6 -189 9 -230 6 -92 23
-437 27 -544 l3 -79 -50 -2 c-27 -2 -203 -6 -390 -10 -187 -3 -342 -8 -345
-10 -7 -4 -592 -18 -807 -19 -77 -1 -139 -4 -136 -8 2 -5 -7 -8 -21 -8 -25 0
-30 8 -27 40 1 10 -5 6 -17 -8 -16 -21 -25 -23 -78 -20 l-59 3 -2 108 c-1 60
3 107 8 107 5 0 9 -4 9 -10 0 -5 9 -10 20 -10 11 0 20 7 20 15 0 8 -5 15 -11
15 -5 0 -7 -4 -4 -10 3 -5 1 -10 -4 -10 -6 0 -11 5 -11 11 0 7 -10 9 -24 5
-19 -5 -29 0 -40 16 -9 12 -16 18 -16 12 0 -6 9 -23 20 -37 11 -14 20 -28 20
-31 0 -13 -23 -5 -36 11 -7 10 -16 14 -21 10 -4 -5 5 -19 21 -32 20 -16 25
-25 16 -30 -8 -5 -18 -1 -25 8 -18 25 -25 21 -25 -12 0 -17 -5 -33 -11 -37 -8
-4 -9 3 -4 26 5 23 4 30 -4 26 -7 -5 -11 3 -11 23 0 16 -9 186 -20 378 -17
303 -70 1406 -70 1463 0 26 17 26 174 0z m4590 -111 c26 -21 33 -52 17 -78
-12 -19 -81 -8 -98 16 -18 24 -16 40 7 63 25 25 41 25 74 -1z m216 10 c73 -16
101 -43 107 -105 6 -60 -22 -129 -91 -221 -89 -120 -214 -163 -473 -163 l-163
0 0 73 c0 53 8 93 28 152 26 75 87 177 106 179 4 1 19 -37 33 -84 58 -203 159
-304 270 -271 92 27 143 111 150 249 5 83 3 90 -26 145 -36 65 -35 66 59 46z
m-2965 -69 c38 -8 65 -32 65 -54 -1 -6 -9 -1 -19 11 -10 12 -43 29 -72 37 -59
16 -38 21 26 6z m-125 -20 c0 -5 -4 -10 -10 -10 -5 0 -10 5 -10 10 0 6 5 10
10 10 6 0 10 -4 10 -10z m4346 -52 c0 -24 3 -68 6 -98 l7 -55 -11 55 c-6 30
-16 58 -21 61 -8 5 8 79 17 79 1 0 2 -19 2 -42z m-1341 -65 c28 -31 30 -41 14
-98 -35 -125 -206 -169 -259 -66 -10 21 -16 41 -13 45 4 3 1 6 -6 6 -14 0 -56
88 -47 97 3 4 6 0 6 -7 0 -9 5 -7 14 6 8 10 16 17 19 14 16 -18 54 -97 51
-105 -6 -14 99 -55 125 -48 23 6 35 41 47 131 4 28 10 52 15 52 4 0 20 -12 34
-27z m1972 -55 c-3 -8 -6 -5 -6 6 -1 11 2 17 5 13 3 -3 4 -12 1 -19z m-3393
-13 c27 -25 30 -45 8 -53 -6 -2 -20 15 -32 37 -23 47 -15 52 24 16z m2232 1
c115 -1 135 -3 153 -20 26 -23 26 -33 4 -39 -10 -2 -6 -4 8 -3 20 2 40 -11 79
-50 45 -45 51 -55 41 -68 -15 -18 -127 -82 -156 -89 -18 -4 -18 -5 2 -6 13 0
37 8 55 19 45 27 64 25 85 -10 9 -16 23 -30 29 -30 6 0 17 -7 24 -14 6 -8 37
-20 68 -27 85 -19 102 -26 102 -43 0 -6 -46 -35 -103 -64 -91 -46 -109 -52
-165 -52 -35 0 -62 -4 -62 -10 0 -20 181 -11 325 16 l30 6 -37 -26 c-20 -14
-40 -26 -43 -26 -3 0 -48 -25 -100 -55 -127 -75 -220 -113 -310 -127 -99 -15
-80 -25 79 -40 138 -13 140 -17 31 -57 -106 -40 -243 -61 -395 -61 -87 0 -140
-4 -140 -10 0 -5 3 -10 8 -10 12 0 135 -20 167 -27 l30 -6 -35 -10 c-19 -5
-50 -11 -67 -14 -49 -8 -40 -19 27 -32 33 -7 60 -15 60 -18 0 -3 -69 -3 -152
1 l-153 6 45 -25 45 -24 -35 0 c-19 0 -71 6 -115 14 -135 25 -153 14 -35 -21
69 -20 161 -64 155 -74 -3 -5 2 -11 11 -14 8 -3 12 -2 9 4 -3 6 -2 10 4 10 19
0 21 -19 4 -29 -10 -6 -13 -11 -7 -11 5 0 15 5 21 11 7 7 21 5 47 -7 39 -19
44 -29 21 -37 -8 -4 -26 -25 -41 -49 -47 -75 -115 -147 -264 -282 -198 -179
-185 -170 -177 -121 4 22 9 56 12 75 3 19 -5 1 -18 -40 -13 -42 -19 -78 -14
-81 14 -10 -73 -118 -153 -188 -39 -35 -82 -80 -95 -100 -12 -20 -50 -65 -84
-101 l-62 -65 5 75 c3 41 8 86 11 100 6 24 6 24 -9 6 -22 -27 -39 -120 -31
-175 5 -37 3 -50 -9 -60 -22 -18 -38 -4 -87 81 -23 38 -43 68 -45 65 -3 -2 9
-34 26 -71 32 -72 38 -110 18 -122 -15 -9 -59 42 -104 123 -34 60 -35 64 -25
119 12 64 7 85 -7 33 l-9 -34 -8 46 c-15 96 47 241 129 301 31 23 35 29 16 23
-60 -18 -140 -98 -180 -180 l-29 -60 0 55 c-1 80 31 191 77 268 22 37 39 68
37 70 -2 2 -44 -25 -94 -59 -50 -35 -93 -60 -97 -56 -12 12 47 96 93 134 103
83 113 96 113 151 0 47 12 73 28 57 3 -3 0 -10 -8 -15 -8 -6 -10 -10 -5 -10 7
0 10 -25 9 -62 -1 -52 0 -54 3 -11 3 44 7 51 21 46 14 -5 15 -3 5 8 -21 22
-15 37 29 69 46 34 63 37 72 14 4 -12 1 -14 -14 -9 -19 6 -53 -6 -51 -18 1 -4
1 -17 1 -29 -1 -22 -1 -23 -15 -4 -13 17 -15 17 -15 4 0 -9 4 -19 9 -22 5 -3
9 -21 8 -40 0 -19 -4 -33 -9 -30 -4 3 -5 -2 -2 -10 8 -22 9 -21 35 20 23 38
58 74 71 74 4 0 8 -22 8 -50 0 -27 4 -50 8 -50 14 0 72 127 72 159 0 24 4 31
19 31 11 0 23 9 26 20 10 31 25 24 83 -37 l54 -58 -6 43 c-6 42 -6 43 16 31
13 -6 42 -27 66 -46 23 -19 42 -29 42 -21 -1 19 -25 48 -41 48 -10 0 -11 2 -2
8 9 6 8 22 -5 67 -8 33 -17 62 -18 63 -5 7 -74 -67 -74 -78 0 -13 -35 -4 -65
16 -26 19 -11 18 25 -1 17 -9 30 -11 30 -6 0 5 -21 16 -47 25 -53 18 -64 20
-43 6 12 -8 10 -10 -10 -8 -14 0 -50 -6 -80 -15 -30 -8 -104 -30 -165 -47 -60
-17 -144 -44 -185 -58 -153 -54 -253 -22 -427 139 -18 16 -23 18 -23 6 0 -20
-52 -27 -124 -15 -94 14 -308 89 -302 105 8 21 -8 15 -62 -22 l-51 -34 10 28
c6 16 21 39 35 52 13 12 24 26 24 29 0 4 -18 10 -41 14 -22 4 -70 20 -106 36
-76 35 -91 31 -121 -32 l-21 -43 0 55 c0 36 8 76 24 115 14 33 25 63 25 68 0
4 -18 7 -40 7 -34 0 -43 -6 -71 -40 -18 -22 -34 -38 -36 -36 -8 8 56 121 89
158 18 20 61 53 96 73 34 20 62 38 62 41 0 3 -26 -8 -57 -26 -53 -30 -59 -31
-97 -20 -48 14 -132 56 -140 69 -4 5 18 17 48 25 62 18 148 82 171 127 21 40
45 166 45 236 0 46 3 54 16 49 9 -3 19 -6 22 -6 4 0 8 -29 8 -64 1 -44 9 -80
23 -109 17 -35 19 -50 11 -71 -17 -45 -75 -129 -121 -175 l-44 -44 45 6 c72
10 87 15 115 33 l26 17 -22 -38 c-13 -21 -39 -54 -58 -72 -30 -29 -32 -33 -13
-28 30 9 28 0 -10 -34 l-32 -28 95 13 c51 7 99 13 104 14 15 0 -43 -47 -98
-79 l-49 -29 64 -11 c35 -5 124 -18 198 -27 113 -14 138 -20 153 -38 l18 -21
-10 22 c-6 12 -11 41 -11 64 l0 42 21 -27 c25 -32 92 -72 136 -81 39 -8 94
-69 86 -94 -13 -35 -45 -71 -64 -71 -11 0 -46 24 -77 53 l-56 52 41 -51 c24
-29 60 -59 84 -69 l41 -19 54 29 c50 27 57 28 96 17 151 -43 157 -44 230 -32
96 14 182 52 308 135 58 38 132 86 164 107 33 21 71 38 85 39 22 1 21 2 -10
11 -34 9 -41 5 -191 -91 -240 -155 -347 -189 -498 -157 -79 17 -170 56 -201
87 -28 28 -23 59 18 101 31 31 37 46 41 91 4 50 3 55 -19 60 -42 12 -203 7
-241 -7 -21 -8 -38 -12 -38 -9 0 2 22 41 49 86 27 45 62 107 77 137 46 87 67
95 259 94 191 -1 275 -16 391 -74 45 -22 117 -65 160 -97 44 -31 88 -56 99
-55 11 0 -20 -20 -69 -44 -48 -25 -86 -47 -84 -50 3 -2 49 17 103 42 80 37
105 45 134 40 188 -30 280 -32 448 -11 119 16 340 67 378 88 18 10 14 12 -31
18 -59 8 -151 36 -159 50 -4 5 19 9 52 9 115 1 234 48 325 130 l53 48 -60 6
c-77 8 -210 39 -261 62 l-39 18 97 7 c112 8 225 31 315 65 35 13 73 24 86 25
42 1 -13 16 -88 23 -70 7 -182 36 -213 56 -13 8 -7 9 23 4 22 -5 99 -8 171 -8z
m-3499 -48 c-3 -7 -5 -2 -5 12 0 14 2 19 5 13 2 -7 2 -19 0 -25z m1157 -55
c36 -163 137 -261 214 -207 17 12 22 25 22 60 0 62 16 55 25 -11 6 -54 -7
-125 -25 -125 -28 0 -218 44 -241 55 -22 12 -36 36 -68 120 -23 58 -41 114
-41 124 0 12 15 26 43 39 23 12 45 21 48 22 3 0 14 -35 23 -77z m2898 15 c2
-20 0 -34 -4 -32 -4 3 -7 26 -7 52 1 49 5 42 11 -20z m-103 35 c-3 -19 2 -27
10 -15 7 11 9 11 14 0 3 -9 -1 -15 -11 -15 -19 0 -33 17 -26 29 6 10 14 10 13
1z m648 -145 c-2 -29 -3 -6 -3 52 0 58 1 81 3 53 2 -29 2 -77 0 -105z m-3403
89 c5 -29 41 -97 50 -95 6 2 31 -17 54 -42 24 -25 41 -39 37 -32 -3 6 -4 12
-1 12 2 0 12 3 21 6 13 5 16 2 13 -17 -2 -15 -13 -27 -30 -33 -63 -22 -149 83
-162 199 -4 39 -3 46 5 32 6 -11 12 -24 13 -30z m2848 -34 c10 -9 18 -23 18
-32 -1 -10 -7 -5 -16 12 -18 33 -40 38 -24 5 11 -22 10 -22 -4 -4 -26 32 -5
48 26 19z m36 -72 c-13 -19 -14 -19 -25 -1 -10 15 -9 17 9 12 17 -4 19 -2 14
19 -6 20 -5 21 4 6 8 -13 8 -22 -2 -36z m-1835 -28 c-13 -2 -33 -2 -45 0 -13
2 -3 4 22 4 25 0 35 -2 23 -4z m1857 -14 c0 -6 -4 -7 -10 -4 -5 3 -10 11 -10
16 0 6 5 7 10 4 6 -3 10 -11 10 -16z m29 -13 c8 -10 8 -16 -1 -24 -10 -8 -13
-4 -13 14 0 28 -1 28 14 10z m-2668 -418 c-19 -5 -46 -6 -60 -2 l-26 7 24 6
c14 4 41 5 60 2 l36 -4 -34 -9z m-1534 -325 c-3 -10 -5 -2 -5 17 0 19 2 27 5
18 2 -10 2 -26 0 -35z m5172 -90 c8 -16 8 -24 -1 -29 -7 -4 -8 -3 -4 4 4 7 2
12 -3 12 -6 0 -11 10 -11 22 0 24 2 23 19 -9z m-19 -30 c7 -21 14 -69 17 -108
4 -56 1 -81 -16 -125 -32 -82 -43 -93 -76 -78 -28 12 -28 13 -1 83 8 22 15 52
16 67 0 27 -1 27 -67 30 -63 3 -68 5 -68 26 0 18 20 38 80 82 44 32 85 59 92
59 7 1 17 -16 23 -36z m-4790 -22 c-1 -13 -3 -13 -15 3 -19 26 -19 42 0 26 8
-7 15 -20 15 -29z m2230 -22 c0 -6 9 -8 20 -4 11 3 20 2 20 -4 0 -19 -15 -19
-50 0 -29 16 -31 19 -12 19 12 0 22 -5 22 -11z m-270 -33 c0 -9 -7 -12 -21 -9
-16 4 -17 8 -7 14 19 13 28 11 28 -5z m2600 -36 c0 -5 -5 -10 -11 -10 -5 0 -7
5 -4 10 3 6 8 10 11 10 2 0 4 -4 4 -10z m-2620 -22 c0 -5 -4 -7 -9 -3 -5 3
-17 -2 -26 -11 -22 -23 -31 -10 -8 13 18 19 43 20 43 1z m-70 -33 c0 -8 -4
-15 -10 -15 -5 0 -7 7 -4 15 4 8 8 15 10 15 2 0 4 -7 4 -15z m-19 -48 c-10 -9
-11 -8 -5 6 3 10 9 15 12 12 3 -3 0 -11 -7 -18z m2360 -92 c43 -32 77 -87 179
-291 54 -107 104 -201 110 -209 6 -8 8 -20 4 -26 -4 -7 -3 -9 3 -6 10 7 38
-42 29 -51 -3 -3 -10 6 -15 19 -10 24 -10 24 -10 2 -1 -14 -6 -21 -14 -17 -18
7 -152 -21 -252 -53 -130 -41 -334 -144 -436 -219 -50 -38 -96 -68 -100 -67
-5 2 -8 -3 -6 -10 1 -6 -6 -11 -15 -11 -10 1 -15 -2 -12 -7 10 -17 -58 -64
-92 -64 -18 0 -36 -4 -40 -8 -5 -4 0 -5 11 -1 18 7 18 6 6 -9 -8 -10 -28 -17
-50 -17 -51 0 -81 -10 -81 -26 0 -8 -4 -14 -10 -14 -12 0 -13 -3 4 45 12 34
12 45 0 75 -13 31 -13 39 1 77 9 24 20 41 23 39 4 -2 8 14 9 35 3 44 -7 49
-31 17 -15 -21 -15 -20 0 12 13 29 72 109 94 130 17 17 84 106 130 175 29 44
66 96 82 116 15 20 28 40 28 44 0 12 -52 -5 -82 -26 -29 -21 -40 -11 -12 11 8
8 20 22 26 33 10 19 9 19 -20 -2 -52 -36 -138 -138 -217 -256 -41 -62 -75
-117 -75 -123 0 -6 -4 -12 -8 -14 -7 -3 -91 -171 -119 -238 -10 -25 -11 -24
-8 6 1 17 5 36 9 42 4 7 2 12 -3 12 -6 0 -11 -5 -11 -10 0 -6 -11 -8 -25 -4
-15 4 -32 1 -41 -7 -14 -12 -14 -14 3 -20 11 -5 -2 -8 -35 -8 -35 -1 -59 -7
-70 -17 -11 -12 -28 -15 -64 -12 -49 5 -52 2 -49 -34 2 -15 -6 -18 -48 -18
-27 0 -53 -5 -56 -10 -4 -6 -22 -17 -41 -25 -19 -8 -37 -21 -40 -30 -4 -9 -18
-15 -37 -15 -17 0 -39 -7 -49 -17 -23 -20 -30 -14 -31 30 -1 34 -1 34 -21 16
-11 -10 -22 -17 -24 -14 -3 3 25 35 61 71 37 36 67 70 67 74 0 5 6 7 14 4 8
-3 13 0 13 9 -1 7 9 29 23 48 44 60 284 292 366 354 43 33 88 68 99 79 40 38
219 168 259 188 22 12 79 45 126 73 108 67 279 153 350 177 74 24 184 21 221
-7z m494 -10 c116 -67 344 -512 465 -905 18 -57 55 -163 82 -235 68 -179 120
-332 174 -515 105 -357 129 -431 175 -549 27 -69 46 -128 41 -133 -10 -10 -34
38 -192 387 -12 28 -58 112 -101 187 -96 168 -127 230 -168 333 -18 44 -39 94
-46 110 l-14 30 -2 -45 c-1 -43 -2 -43 -10 -15 -5 18 -7 -67 -5 -205 4 -255
-3 -510 -14 -510 -4 0 -10 66 -13 148 -17 402 -29 553 -57 717 -37 215 -80
382 -114 440 -27 46 -92 107 -149 138 l-32 18 40 -5 c22 -4 33 -3 25 0 -8 4
-19 14 -24 22 -7 12 -10 12 -17 1 -6 -9 -7 -1 -3 20 7 31 6 33 -14 22 -19 -10
-22 -8 -32 29 -6 23 -17 40 -25 40 -8 0 -15 7 -15 16 0 29 -38 73 -59 67 -13
-3 -30 6 -51 27 -35 35 -56 35 -52 -1 2 -21 1 -20 -11 6 -8 17 -12 36 -9 44 4
10 1 12 -7 6 -10 -6 -11 -3 -1 14 6 12 16 18 22 15 7 -4 8 -3 4 5 -4 6 -12 8
-18 5 -7 -5 -9 2 -4 22 5 24 4 26 -5 11 -6 -10 -8 -25 -5 -32 3 -8 0 -17 -7
-21 -7 -4 -9 -4 -5 1 4 4 -1 22 -12 40 -11 18 -31 61 -44 97 -24 63 -24 66 -6
61 11 -3 20 -10 20 -15 0 -5 -5 -6 -12 -2 -7 4 -8 3 -4 -4 9 -16 40 3 80 47
46 51 114 91 155 91 19 0 53 -11 76 -25z m182 -82 c-3 -10 -5 -2 -5 17 0 19 2
27 5 18 2 -10 2 -26 0 -35z m-4301 -21 c-5 -4 -86 36 -86 43 0 3 20 -5 45 -17
24 -12 43 -23 41 -26z m-316 -12 c0 -5 -9 -10 -20 -10 -11 0 -20 -7 -20 -15 0
-8 -4 -15 -10 -15 -17 0 -11 38 8 43 30 8 42 7 42 -3z m355 -8 c-3 -3 -11 0
-18 7 -9 10 -8 11 6 5 10 -3 15 -9 12 -12z m-3018 -24 c-3 -7 -5 -2 -5 12 0
14 2 19 5 13 2 -7 2 -19 0 -25z m3058 12 c3 -6 -1 -7 -9 -4 -18 7 -21 14 -7
14 6 0 13 -4 16 -10z m4215 -17 c0 -19 -3 -24 -10 -17 -6 6 -8 18 -4 27 9 24
14 21 14 -10z m-4260 -3 c8 -5 11 -10 5 -10 -5 0 -17 5 -25 10 -8 5 -10 10 -5
10 6 0 17 -5 25 -10z m90 0 c8 -5 11 -10 5 -10 -5 0 -17 5 -25 10 -8 5 -10 10
-5 10 6 0 17 -5 25 -10z m-1067 -22 c-2 -5 -3 -23 -3 -41 l0 -33 -277 -11
c-153 -6 -551 -26 -884 -44 l-606 -33 -24 27 c-13 15 -51 39 -84 53 l-60 25
65 -4 c63 -3 516 13 890 33 102 5 343 14 535 20 193 6 364 12 380 14 44 5 70
2 68 -6z m1056 -15 l46 -27 -33 -13 c-18 -7 -38 -10 -44 -7 -7 4 -8 2 -4 -4 4
-7 2 -12 -5 -12 -6 0 -33 -19 -58 -41 -25 -23 -59 -53 -74 -67 l-28 -25 4 24
c2 13 2 19 0 12 -2 -7 -12 -9 -21 -6 -15 6 -15 5 1 -11 20 -20 20 -23 7 -39
-27 -31 -93 -153 -107 -198 -12 -38 -28 -60 -62 -87 -58 -47 -174 -154 -272
-252 l-75 -75 -60 32 c-32 18 -53 33 -46 33 7 0 11 4 8 9 -3 5 5 11 17 15 13
3 36 17 53 31 16 15 41 33 57 41 26 14 38 44 16 44 -6 0 -25 -10 -42 -23 -49
-34 -62 -32 -75 12 -16 52 -15 57 10 81 16 14 19 23 11 31 -8 8 -7 18 3 37 8
15 14 36 14 46 0 22 15 72 37 126 34 84 87 115 180 107 62 -6 64 -6 75 21 l11
27 6 -28 c6 -28 6 -28 21 -7 12 16 21 19 49 14 26 -5 33 -4 29 7 -3 9 -18 13
-45 11 -23 -2 -44 1 -47 6 -7 12 3 44 13 38 3 -2 21 2 39 10 22 9 31 18 26 26
-4 7 2 5 13 -4 11 -10 28 -18 39 -18 11 0 25 -5 32 -12 9 -9 12 -9 12 0 0 7
13 12 30 12 17 0 30 3 30 8 0 4 12 16 27 26 26 19 26 19 21 -2 -4 -16 -2 -19
10 -15 10 5 13 2 8 -6 -5 -7 -18 -10 -31 -7 -17 4 -22 2 -21 -12 2 -25 36 -46
36 -21 0 5 -4 7 -10 4 -5 -3 -10 -2 -10 3 0 6 11 13 25 16 25 6 35 39 15 51
-15 9 0 35 21 35 10 0 19 -4 19 -10 0 -5 -4 -10 -10 -10 -5 0 -10 -4 -10 -10
0 -5 7 -10 16 -10 8 0 12 5 9 10 -3 6 -1 10 6 10 7 0 5 8 -6 20 -10 11 -16 22
-14 25 4 4 49 23 58 24 2 1 25 -11 50 -26z m152 -18 c138 -55 194 -84 279
-143 110 -76 173 -143 148 -158 -6 -4 -8 -3 -5 3 4 6 -1 17 -10 24 -12 10 -14
10 -9 2 14 -24 -9 -13 -37 16 -68 72 -274 202 -396 251 -49 19 -104 50 -89 50
3 0 57 -20 119 -45z m6278 -98 c1 -31 -3 -47 -10 -45 -6 2 -10 7 -10 11 1 4 1
33 2 65 1 70 17 43 18 -31z m-6409 51 c0 -2 -23 -48 -51 -102 -28 -55 -48
-108 -46 -118 3 -10 2 -16 -3 -13 -4 3 -13 -19 -20 -48 -12 -56 -14 -61 -53
-152 -25 -60 -41 -122 -56 -225 -8 -54 -8 -54 -19 -27 -19 44 -14 260 7 340 9
37 16 67 14 67 -9 0 -56 -109 -69 -162 -9 -35 -24 -69 -33 -76 -9 -7 -10 -10
-2 -6 11 6 13 2 7 -17 -4 -13 -8 -29 -8 -36 -1 -7 -5 -10 -11 -6 -5 3 -6 15
-4 27 5 20 5 20 -6 2 -24 -39 -80 -96 -91 -94 -7 2 -53 -39 -103 -89 -50 -51
-97 -93 -105 -93 -7 0 -28 12 -46 28 l-33 27 138 136 c76 74 163 156 193 181
38 33 61 61 74 95 29 72 94 178 143 233 52 58 183 149 183 128z m-1450 -49 c0
-14 -27 -22 -47 -14 -17 6 -17 7 0 20 19 14 47 10 47 -6z m220 6 c0 -9 -9 -15
-25 -15 -16 0 -25 6 -25 15 0 9 9 15 25 15 16 0 25 -6 25 -15z m70 5 c0 -5 -4
-10 -10 -10 -5 0 -10 5 -10 10 0 6 5 10 10 10 6 0 10 -4 10 -10z m4978 -79 c3
-8 -1 -12 -9 -9 -7 2 -15 10 -17 17 -3 8 1 12 9 9 7 -2 15 -10 17 -17z m-5
-56 c4 -8 3 -16 -1 -19 -4 -3 -9 4 -9 15 -2 23 3 25 10 4z m13 -33 c-17 -16
-18 -16 -5 5 7 12 15 20 18 17 3 -2 -3 -12 -13 -22z m104 18 c0 -5 -2 -10 -4
-10 -3 0 -8 5 -11 10 -3 6 -1 10 4 10 6 0 11 -4 11 -10z m-2074 -52 c-9 -31
-32 -179 -50 -318 -15 -109 -27 -338 -42 -811 -6 -191 -8 -206 -24 -202 -16 4
-19 22 -25 131 -13 218 24 882 61 1098 13 79 18 92 42 107 37 22 45 21 38 -5z
m1995 -25 c-12 -20 -14 -14 -5 12 4 9 9 14 11 11 3 -2 0 -13 -6 -23z m-3234
-15 c13 -12 23 -28 23 -36 0 -9 -3 -13 -6 -9 -3 3 -4 7 -2 10 4 7 -33 47 -44
47 -5 0 -6 -5 -2 -12 4 -7 3 -8 -5 -4 -11 7 -6 26 6 26 4 0 17 -10 30 -22z
m-163 -20 c2 -13 11 -60 20 -104 17 -86 16 -107 -28 -359 -15 -87 -14 -561 2
-810 7 -106 6 -140 -7 -185 l-15 -55 -8 40 c-4 22 -7 69 -7 105 -1 36 -5 91
-10 122 -6 31 -15 156 -21 278 -13 253 -6 376 37 600 28 142 30 187 18 313 -5
54 -4 77 3 77 7 0 14 -10 16 -22z m431 -266 c-1 -1 -47 43 -101 99 -135 139
-134 138 -134 147 0 4 54 -49 119 -118 65 -69 118 -126 116 -128z m3060 195
c7 -9 15 -66 19 -127 10 -156 21 -214 55 -286 28 -60 32 -64 63 -64 19 0 45
-8 58 -17 45 -31 115 -94 127 -116 17 -30 16 -96 -2 -147 -9 -27 -15 -79 -15
-140 l0 -97 -49 -67 c-27 -36 -57 -91 -66 -121 -10 -30 -20 -55 -22 -55 -3 0
-14 12 -25 26 l-21 25 -31 -29 c-40 -37 -59 -44 -82 -28 -11 8 -57 23 -104 35
-129 33 -166 55 -221 134 -26 38 -61 84 -79 102 -25 26 -31 39 -26 59 3 13 1
28 -4 31 -6 4 -10 3 -9 -2 1 -4 1 -15 -1 -23 -1 -11 -4 -10 -11 5 -7 15 -8 8
-4 -25 4 -32 2 -41 -5 -30 -7 11 -10 11 -10 2 0 -7 19 -34 43 -60 79 -86 97
-113 97 -142 0 -27 8 -33 98 -76 107 -52 194 -84 225 -84 12 0 41 10 65 22 36
17 48 19 63 10 28 -18 35 -15 49 18 7 16 41 62 76 102 36 40 67 83 70 94 3 12
4 62 2 113 -3 95 3 114 20 59 12 -40 21 -383 13 -493 l-6 -80 -14 40 c-20 60
-28 62 -35 8 -4 -26 -9 -60 -12 -76 l-6 -28 -19 25 c-19 24 -87 72 -93 65 -2
-2 -19 -29 -40 -59 -37 -56 -47 -61 -22 -12 7 15 16 41 20 57 4 23 0 18 -20
-20 -39 -73 -82 -124 -118 -139 l-31 -12 -28 73 c-16 40 -34 72 -40 70 -6 -1
-13 8 -15 21 -4 23 -18 30 -24 11 -2 -6 -10 2 -18 18 -32 64 -60 91 -111 108
-49 17 -78 17 -158 -1 -34 -7 -34 -7 -28 24 6 30 5 31 -13 20 -33 -21 -33 -2
1 57 29 51 30 56 11 46 -19 -10 -24 -8 -38 16 -30 48 -96 112 -110 106 -8 -3
-14 0 -14 7 0 6 5 8 12 4 7 -5 9 -2 5 8 -3 9 -2 19 3 24 4 5 15 25 23 45 11
28 12 36 2 36 -7 0 -11 -7 -8 -16 4 -13 2 -13 -10 2 -21 25 -31 21 -13 -5 22
-32 20 -44 -4 -23 -18 16 -25 17 -54 7 -18 -7 -52 -12 -77 -12 -42 0 -151 28
-165 43 -16 16 -52 6 -58 -15 l-7 -23 -10 24 c-7 18 -13 21 -21 13 -8 -8 -15
-7 -26 4 -8 9 -17 11 -21 6 -3 -5 -49 -31 -101 -57 -52 -26 -113 -60 -135 -74
-22 -15 -62 -40 -90 -56 l-50 -28 30 32 c27 29 86 71 210 150 22 14 42 28 45
31 23 25 89 68 94 63 4 -4 4 0 0 10 -3 10 -1 17 5 17 6 0 17 11 23 25 12 28
31 35 21 8 -4 -11 -3 -14 6 -9 6 4 10 15 7 24 -3 11 28 59 85 132 115 148 349
492 349 515 0 15 -124 -67 -166 -110 -33 -33 -68 -94 -98 -169 -41 -102 -48
-116 -57 -111 -4 3 -5 -3 -3 -12 3 -11 -10 -34 -35 -60 -22 -24 -41 -43 -43
-43 -2 0 -4 9 -4 19 0 11 3 18 7 15 4 -2 5 6 1 18 -4 15 -7 18 -10 8 -3 -8
-13 -23 -23 -34 -17 -17 -19 -18 -25 -3 -8 21 -47 22 -64 2 -14 -16 -35 -21
-25 -6 3 6 -3 15 -14 21 -16 8 -19 8 -16 -3 3 -7 -9 -24 -27 -37 -18 -13 -36
-29 -41 -36 -4 -7 -14 -11 -22 -7 -11 3 -13 1 -9 -10 6 -17 -11 -31 -26 -22
-7 4 -1 16 15 31 14 13 23 28 20 34 -3 5 -2 17 4 27 5 10 14 31 21 47 9 24 13
27 22 15 8 -11 9 -10 4 5 -14 42 330 343 477 417 124 63 246 112 347 140 92
25 119 28 219 26 92 -3 116 -7 126 -20z m-3785 -217 c0 -5 5 -10 11 -10 6 0 9
-6 6 -14 -3 -8 -3 -16 1 -18 4 -2 20 -21 36 -43 17 -22 36 -44 43 -48 7 -4 13
-13 13 -19 0 -6 7 -16 16 -22 14 -11 13 -14 -5 -36 l-21 -25 6 33 7 32 -47 0
c-30 0 -46 4 -47 13 0 9 -2 9 -6 -1 -4 -10 -8 -10 -19 -1 -18 15 -32 3 -16
-13 7 -7 12 -21 11 -33 0 -15 -4 -12 -15 13 -15 34 -6 72 18 72 9 0 9 3 0 12
-8 8 -15 8 -27 -2 -8 -7 -17 -11 -19 -9 -8 11 -26 69 -32 104 -4 22 -11 48
-16 58 -12 23 -1 37 12 17 6 -9 10 -10 10 -3 0 6 -4 14 -10 18 -6 3 -5 15 2
31 12 25 12 24 50 -35 21 -33 38 -65 38 -71z m2522 8 c-7 -7 -12 -8 -12 -2 0
14 12 26 19 19 2 -3 -1 -11 -7 -17z m-3803 -27 c8 -5 12 -18 8 -31 -5 -19 -2
-21 23 -15 16 3 31 2 35 -4 3 -7 -2 -11 -14 -11 -12 0 -21 -5 -21 -11 0 -6 -7
-3 -16 5 -21 22 -31 20 -38 -6 -4 -18 -8 -20 -17 -11 -10 10 -9 17 5 32 10 11
16 26 13 33 -3 8 -6 5 -7 -7 l-1 -20 -8 20 c-14 33 6 46 38 26z m-1058 -46
c20 7 280 -9 418 -26 140 -17 453 -79 510 -102 30 -12 56 -28 59 -35 8 -26
-180 -96 -288 -107 -24 -3 -114 -17 -200 -31 -242 -39 -650 -75 -650 -56 0 16
24 21 137 27 191 10 388 27 403 36 17 9 16 9 -110 15 -77 3 -156 20 -166 35
-3 5 10 9 28 9 96 0 400 72 381 90 -11 12 -242 30 -371 30 -79 0 -113 4 -129
15 -22 16 -54 95 -52 129 1 14 3 12 6 -7 4 -22 8 -27 24 -22z m-331 26 c0 -13
-8 -17 -47 -26 -26 -5 -33 -3 -33 9 0 9 12 16 33 19 17 2 35 5 40 5 4 1 7 -2
7 -7z m3072 -79 c29 -11 82 -23 118 -27 36 -4 100 -15 144 -26 43 -10 87 -19
98 -19 18 0 17 -2 -3 -30 -21 -27 -23 -28 -36 -12 -8 9 -12 12 -9 5 4 -6 2
-14 -4 -18 -5 -3 -10 -1 -10 5 0 7 -6 5 -15 -4 -8 -8 -15 -21 -15 -28 1 -9 4
-9 13 3 8 11 19 14 32 9 18 -7 18 -9 3 -15 -9 -4 -14 -13 -11 -21 3 -8 0 -14
-6 -14 -6 0 -11 5 -11 12 0 6 -3 9 -6 6 -3 -4 -1 -15 5 -27 8 -14 8 -22 0 -26
-6 -4 -13 2 -16 14 -5 19 -12 21 -89 21 -73 0 -84 2 -84 18 -1 15 -2 15 -15
-2 -17 -23 -22 -19 -46 32 -10 20 -18 30 -18 22 -1 -8 -10 -21 -21 -27 -16
-11 -21 -10 -30 6 -5 11 -10 26 -10 34 0 8 -7 30 -15 48 l-16 34 6 -38 c4 -26
3 -37 -4 -32 -12 7 -15 75 -3 75 4 0 6 19 5 43 -3 33 -1 37 6 20 6 -13 30 -29
63 -41z m-2057 29 c3 -5 2 -12 -3 -15 -5 -3 -9 1 -9 9 0 17 3 19 12 6z m-32
-8 c-7 -2 -21 -2 -30 0 -10 3 -4 5 12 5 17 0 24 -2 18 -5z m97 -12 c0 -6 12
-9 26 -8 15 1 29 -4 31 -10 6 -16 -31 -17 -58 -3 -20 11 -26 30 -9 30 6 0 10
-4 10 -9z m4129 -33 c1 -5 -3 -8 -9 -8 -5 0 -10 12 -9 28 0 24 1 25 9 7 5 -11
9 -23 9 -27z m-3523 -13 c105 -52 310 -258 306 -308 0 -9 3 -15 9 -12 5 4 9 0
9 -8 0 -8 7 -20 15 -27 9 -7 13 -20 10 -29 -3 -8 -3 -12 1 -8 9 8 77 -120 72
-135 -2 -6 -14 12 -26 40 -22 51 -44 66 -56 37 -6 -18 10 -20 20 -3 5 7 10 3
16 -12 5 -15 5 -27 -2 -34 -8 -8 -9 -6 -5 7 6 14 1 17 -29 17 -31 0 -36 3 -36
24 0 13 -7 29 -15 36 -8 7 -15 18 -15 26 0 23 -44 86 -89 128 -24 23 -56 54
-70 70 -71 77 -105 106 -138 115 -30 9 -40 7 -55 -6 -10 -9 -18 -20 -18 -24 0
-17 -35 -49 -52 -49 -20 0 -23 11 -8 26 5 5 16 38 24 73 21 90 44 100 132 56z
m3120 -21 c1 -13 -9 -33 -24 -46 -21 -18 -23 -19 -12 -3 8 11 19 23 25 27 5 4
2 14 -8 25 -15 18 -15 19 1 19 11 0 18 -9 18 -22z m584 13 c0 -2 -15 -16 -32
-33 l-33 -29 29 33 c28 30 36 37 36 29z m-1808 -71 c-3 -28 -6 -117 -6 -198
l1 -148 -32 0 c-18 0 -37 6 -43 13 -16 19 -25 128 -13 157 9 21 10 18 6 -20
-6 -51 4 -74 31 -68 16 3 19 13 19 55 0 29 4 55 8 59 13 13 -14 34 -32 25 -13
-8 -16 -3 -19 30 -2 29 1 39 12 39 8 0 18 5 22 12 5 8 2 9 -9 5 -14 -5 -17 0
-17 33 0 22 5 40 10 40 6 0 10 -6 9 -12 -4 -31 2 -48 16 -48 8 0 15 3 15 8 0
4 3 18 6 32 5 20 3 22 -5 10 -10 -13 -12 -13 -20 0 -13 19 4 39 29 33 17 -5
18 -11 12 -57z m315 48 c-3 -3 -12 -4 -19 -1 -8 3 -5 6 6 6 11 1 17 -2 13 -5z
m-1067 -24 c0 -5 -4 -10 -10 -10 -5 0 -10 5 -10 10 0 6 5 10 10 10 6 0 10 -4
10 -10z m1610 -20 c0 -5 -12 -18 -27 -29 -16 -12 -34 -26 -42 -32 -11 -10 -12
-8 -6 11 5 15 4 20 -4 16 -18 -12 -12 5 8 23 19 17 71 25 71 11z m728 -15 c-3
-3 -9 2 -12 12 -6 14 -5 15 5 6 7 -7 10 -15 7 -18z m-2489 -12 c0 -25 -1 -26
-9 -8 -12 27 -12 35 0 35 6 0 10 -12 9 -27z m328 5 c-3 -8 -6 -5 -6 6 -1 11 2
17 5 13 3 -3 4 -12 1 -19z m-150 -10 c-3 -8 -6 -5 -6 6 -1 11 2 17 5 13 3 -3
4 -12 1 -19z m-1507 8 c0 -9 -55 -43 -80 -50 -17 -5 -11 2 20 23 42 29 60 37
60 27z m2987 -78 c-2 -13 -4 -3 -4 22 0 25 2 35 4 23 2 -13 2 -33 0 -45z
m-2562 -55 c60 -29 100 -70 139 -143 16 -30 35 -62 42 -71 8 -8 14 -32 14 -52
l0 -37 -80 0 c-47 0 -80 -4 -80 -10 0 -5 -18 -10 -40 -10 -31 0 -40 4 -40 17
0 13 -3 14 -12 5 -9 -9 -9 -15 0 -24 7 -7 12 -17 12 -23 0 -5 -5 -2 -11 8 -13
22 -30 22 -22 0 6 -15 5 -16 -9 -3 -9 8 -12 17 -8 20 4 3 1 22 -7 42 -12 30
-19 36 -41 34 -14 -2 -28 -9 -30 -17 -3 -12 -2 -12 6 0 7 10 11 10 17 1 6 -9
9 -9 16 1 7 11 7 -25 0 -50 0 -3 -14 8 -31 24 -16 15 -26 33 -23 39 3 6 3 8
-2 4 -4 -4 -31 13 -59 39 -28 25 -64 52 -81 59 l-30 13 26 1 c14 0 36 -9 49
-20 16 -13 30 -18 44 -14 18 6 19 5 8 -8 -10 -12 -8 -19 8 -38 11 -13 20 -18
20 -12 0 6 -7 18 -16 26 -14 15 -14 17 1 22 9 4 13 10 8 13 -5 3 -14 19 -21
35 -12 26 -14 27 -30 13 -12 -11 -29 -14 -60 -10 -51 7 -66 23 -22 23 18 0 29
4 25 10 -3 6 0 10 9 10 8 0 17 -6 19 -12 3 -8 6 -6 6 5 1 11 10 17 29 18 24 2
24 2 4 6 -13 3 -56 -7 -95 -21 -40 -13 -89 -28 -110 -31 l-38 -6 43 -23 c24
-12 47 -31 52 -42 5 -11 27 -29 49 -39 23 -11 67 -46 98 -78 58 -58 78 -62 59
-10 -10 28 -10 27 21 -7 28 -31 72 -91 94 -129 6 -10 4 -12 -5 -6 -10 6 -12 4
-7 -8 4 -10 10 -24 13 -32 11 -27 -11 -16 -23 12 -9 19 -10 29 -2 34 7 4 8 9
1 13 -11 7 -25 -21 -16 -35 3 -5 -1 -9 -9 -9 -8 0 -18 -7 -21 -17 -6 -15 -8
-14 -25 3 -10 11 -21 26 -24 34 -3 9 -6 3 -6 -12 -1 -26 -4 -28 -41 -28 -33 0
-40 -4 -40 -19 0 -10 -7 -22 -16 -25 -13 -5 -14 -9 -5 -20 10 -12 6 -12 -26 0
-21 7 -45 13 -55 14 -42 1 -118 60 -77 60 6 0 7 -5 3 -11 -4 -7 -1 -10 7 -7 8
3 25 -3 38 -13 13 -11 28 -19 33 -19 18 0 -4 21 -43 40 -31 17 -43 18 -60 9
-15 -8 -19 -8 -15 0 4 7 -1 11 -13 11 -16 0 -19 5 -15 25 4 23 2 25 -23 20
l-28 -5 28 11 c15 6 27 15 27 20 0 6 -8 6 -19 -1 -11 -5 -26 -10 -33 -10 -7 1
-2 7 11 14 l24 13 -21 21 c-27 27 -63 36 -111 28 -31 -5 -44 -2 -62 15 l-24
20 38 -5 c33 -4 36 -3 22 10 -8 9 -27 14 -42 12 -15 -2 -28 2 -30 10 -3 7 4
12 16 12 11 0 23 5 27 11 4 8 -1 9 -17 4 -29 -8 -61 -44 -100 -111 -23 -39
-37 -53 -66 -62 -20 -6 -39 -10 -41 -8 -2 2 17 46 41 98 49 106 77 133 168
167 52 20 91 41 218 122 52 33 59 34 165 37 77 3 132 -1 179 -12 81 -19 97
-19 42 0 l-40 14 40 -6 c36 -5 38 -4 21 9 -18 13 -18 14 9 21 23 6 26 9 14 17
-27 18 44 -3 96 -28z m3635 -23 c0 -5 -2 -10 -4 -10 -3 0 -8 5 -11 10 -3 6 -1
10 4 10 6 0 11 -4 11 -10z m-200 -20 c0 -5 -5 -10 -11 -10 -5 0 -7 5 -4 10 3
6 8 10 11 10 2 0 4 -4 4 -10z m190 -21 c0 -6 -4 -7 -10 -4 -5 3 -10 11 -10 16
0 6 5 7 10 4 6 -3 10 -11 10 -16z m70 -25 c0 -13 -25 -54 -34 -54 -6 0 -5 5 2
12 9 9 8 15 -2 27 -13 14 -12 16 10 17 13 1 24 0 24 -2z m-4065 -34 c3 -5 -1
-10 -9 -10 -8 0 -18 5 -21 10 -3 6 1 10 9 10 8 0 18 -4 21 -10z m3780 -10 c3
-6 -1 -7 -10 -4 -11 5 -14 2 -9 -12 5 -15 4 -16 -4 -4 -11 15 -7 30 8 30 5 0
12 -4 15 -10z m-70 -30 c-3 -5 -11 -10 -16 -10 -6 0 -7 5 -4 10 3 6 11 10 16
10 6 0 7 -4 4 -10z m308 -5 c-3 -9 -8 -14 -10 -11 -3 3 -2 9 2 15 9 16 15 13
8 -4z m-4421 -171 c-2 -13 -7 -24 -9 -24 -3 0 -3 11 -1 25 3 14 1 25 -4 25 -5
0 -6 5 -2 11 10 17 22 -8 16 -37z m-35 -16 c-3 -7 -5 -2 -5 12 0 14 2 19 5 13
2 -7 2 -19 0 -25z m712 -1 l25 -32 -32 29 c-33 31 -37 36 -24 35 4 0 18 -14
31 -32z m4152 -42 c14 9 11 -1 -4 -13 -10 -8 -13 -5 -14 16 0 15 1 19 4 9 2
-9 9 -15 14 -12z m-4851 -5 c0 -5 -5 -10 -11 -10 -5 0 -7 5 -4 10 3 6 8 10 11
10 2 0 4 -4 4 -10z m17 -26 c-3 -3 -12 -4 -19 -1 -8 3 -5 6 6 6 11 1 17 -2 13
-5z m-78 -25 c41 -15 39 -25 -6 -34 -51 -9 -176 -62 -208 -87 -14 -11 -37 -42
-50 -69 -34 -65 -49 -64 -43 4 7 91 68 149 188 181 68 18 79 19 119 5z m258 5
c-3 -3 -12 -4 -19 -1 -8 3 -5 6 6 6 11 1 17 -2 13 -5z m38 -14 c3 -6 -1 -7 -9
-4 -18 7 -21 14 -7 14 6 0 13 -4 16 -10z m2 -55 c83 -26 193 -100 240 -162 24
-31 24 -32 5 -51 -11 -11 -18 -22 -16 -25 3 -2 -15 -10 -40 -16 -25 -6 -48
-15 -51 -21 -3 -5 -46 -10 -94 -10 -56 0 -92 -4 -100 -12 -10 -11 -16 -9 -28
10 -14 20 -43 31 -43 16 0 -4 17 -22 38 -41 l37 -35 -45 33 c-25 18 -46 34
-48 35 -2 1 2 11 10 23 15 25 1 42 -51 60 -37 12 -51 8 -51 -17 0 -9 -8 -2
-18 17 -9 19 -23 37 -31 39 -8 3 -11 0 -7 -7 5 -7 -6 -9 -36 -5 -49 7 -144
-21 -268 -80 -84 -40 -81 -40 78 -25 109 11 282 5 282 -10 0 -3 -33 -17 -73
-30 -40 -12 -100 -37 -132 -54 -49 -27 -64 -41 -89 -89 -17 -32 -35 -56 -41
-55 -5 2 -11 20 -13 41 -3 28 -9 39 -27 46 -13 5 -42 20 -63 34 -22 13 -56 28
-76 32 -27 5 -40 13 -47 32 -5 13 -8 26 -7 27 2 1 23 9 48 18 25 9 82 39 128
66 105 62 153 75 244 69 63 -5 70 -4 53 8 -16 12 -16 14 -3 14 9 0 20 -4 23
-10 3 -5 10 -10 16 -10 5 0 -4 14 -21 31 -16 17 -27 36 -24 41 5 8 59 35 174
86 39 17 83 14 167 -13z m453 0 c0 -8 -4 -15 -10 -15 -5 0 -10 7 -10 15 0 8 5
15 10 15 6 0 10 -7 10 -15z m-222 -63 c8 -6 2 -9 -18 -9 -20 0 -26 3 -18 9 7
4 15 8 18 8 3 0 11 -4 18 -8z m2852 -49 c3 -2 -3 -10 -13 -17 -9 -7 -17 -20
-17 -29 0 -22 -49 -35 -61 -16 -16 26 -10 59 14 69 20 9 66 5 77 -7z m1090
-63 c11 -7 3 -10 -29 -10 -35 0 -41 -3 -32 -13 17 -21 4 -26 -48 -21 -25 3
-81 1 -124 -4 -43 -4 -80 -5 -82 -1 -6 9 67 38 120 49 57 11 177 11 195 0z
m47 4 c-3 -3 -12 -4 -19 -1 -8 3 -5 6 6 6 11 1 17 -2 13 -5z m-4390 -46 c18
-7 33 -16 33 -20 0 -12 -24 -10 -37 3 -6 6 -17 9 -25 6 -8 -3 -2 -9 16 -16 16
-6 27 -14 24 -17 -3 -2 -17 0 -31 5 -17 7 -25 17 -24 31 2 24 1 23 44 8z m457
-14 c3 -8 2 -12 -4 -9 -6 3 -10 10 -10 16 0 14 7 11 14 -7z m22 -61 c-3 -4 -6
-1 -6 6 0 7 -4 9 -10 6 -6 -4 -7 1 -3 11 6 15 7 15 15 -1 6 -9 7 -19 4 -22z
m3853 26 c24 -5 89 -36 145 -68 126 -72 350 -182 436 -214 101 -37 201 -57
293 -57 69 0 87 -3 101 -19 17 -18 13 -51 -7 -51 -6 0 -7 -3 -4 -6 4 -4 13 -1
21 5 18 15 32 8 39 -20 5 -20 5 -20 -15 -2 -12 10 -18 13 -15 6 9 -14 -66 -29
-85 -17 -7 5 -38 10 -68 12 -92 6 -98 7 -93 15 2 4 -6 7 -18 7 -19 0 -128 49
-154 70 -5 4 -38 16 -72 26 -34 10 -59 22 -56 28 4 5 -1 7 -11 3 -9 -4 -47 -2
-84 4 -37 6 -82 10 -99 9 -18 0 -33 4 -33 10 0 6 -8 19 -17 28 -13 13 -36 17
-102 18 -47 1 -92 -3 -99 -9 -9 -7 -16 -7 -24 1 -16 16 -28 15 -28 -3 0 -11
-11 -15 -40 -15 -25 0 -40 -5 -40 -12 0 -9 -3 -9 -9 1 -7 11 -13 12 -23 4 -10
-9 -18 -7 -33 4 -20 15 -20 15 3 8 14 -4 22 -2 22 6 0 8 -12 10 -37 6 -26 -5
-65 2 -132 23 -98 31 -316 79 -361 81 -31 1 -4 10 196 69 175 51 399 73 503
49z m-6226 -15 c40 -9 80 -23 89 -32 19 -19 165 -309 170 -338 2 -11 -2 -18
-10 -16 -7 1 -22 4 -34 6 -12 1 -24 8 -26 14 -2 7 -8 12 -13 12 -6 0 -7 -5 -3
-11 5 -9 -1 -10 -22 -5 -72 18 -86 34 -171 206 -45 91 -82 168 -83 173 0 11
23 9 103 -9z m2721 -118 l20 -31 -25 23 c-14 12 -36 41 -48 65 l-23 42 29 -34
c15 -19 37 -48 47 -65z m1046 55 c0 -5 -7 -17 -16 -25 -8 -9 -12 -20 -9 -26 3
-5 -3 -10 -15 -10 -31 0 -37 30 -11 52 25 19 51 24 51 9z m46 -8 c17 -23 17
-33 1 -33 -8 0 -19 11 -25 25 -14 30 3 35 24 8z m1415 -12 c52 -11 132 -22
179 -26 151 -12 486 -103 698 -189 147 -60 162 -68 156 -77 -3 -5 1 -6 9 -4
18 8 130 -43 122 -55 -4 -6 1 -7 11 -3 13 5 15 3 9 -7 -5 -8 -4 -11 3 -6 14 9
63 -14 55 -27 -4 -6 -1 -7 6 -3 7 5 20 1 29 -7 9 -8 40 -26 67 -40 61 -32 55
-35 -11 -5 -32 14 -66 21 -96 19 -27 -1 -48 2 -48 8 0 5 -36 13 -80 17 -44 3
-80 11 -80 15 0 5 -72 9 -160 9 -100 0 -160 -4 -160 -10 0 -15 -57 -12 -64 3
-5 10 -7 10 -12 0 -7 -16 -289 -19 -299 -3 -9 14 -185 13 -185 -1 0 -8 -13 -9
-40 -5 -32 5 -40 3 -40 -9 0 -13 -3 -13 -20 -3 -16 10 -24 10 -40 0 -12 -7
-20 -8 -20 -2 0 5 -10 10 -23 10 -13 0 -29 6 -36 13 -11 10 -14 10 -18 0 -3
-9 -30 -13 -84 -13 -69 0 -79 2 -79 18 0 9 -5 24 -11 32 -8 12 -9 10 -4 -7 3
-13 2 -31 -4 -40 -10 -17 -10 -17 -11 1 0 14 -52 135 -67 155 -2 2 -19 -1 -40
-7 -27 -8 -33 -8 -25 0 7 7 12 29 12 50 0 24 5 38 13 38 9 0 9 2 -1 8 -19 13
-6 36 48 81 112 95 170 107 341 72z m-401 -155 c0 -2 -14 -19 -31 -37 l-31
-34 24 37 c19 32 38 48 38 34z m1323 -23 c-7 -2 -19 -2 -25 0 -7 3 -2 5 12 5
14 0 19 -2 13 -5z m1142 -3 c-3 -5 -12 -10 -20 -10 -8 0 -17 -5 -21 -11 -4 -7
0 -9 12 -5 13 4 24 -1 33 -17 11 -17 11 -19 0 -9 -7 6 -19 12 -27 12 -9 0 -7
-6 8 -18 14 -11 19 -23 14 -35 -5 -15 -10 -12 -32 20 -14 21 -30 41 -35 44 -5
3 9 13 30 22 46 19 46 19 38 7z m-908 -86 c-3 -3 -12 -4 -19 -1 -8 3 -5 6 6 6
11 1 17 -2 13 -5z m56 -11 c-7 -2 -19 -2 -25 0 -7 3 -2 5 12 5 14 0 19 -2 13
-5z m-2098 -85 c22 -5 132 -12 245 -15 222 -5 237 -9 264 -62 21 -40 46 -114
40 -120 -2 -2 -11 4 -19 15 -12 16 -14 16 -15 3 0 -9 11 -21 25 -27 14 -6 25
-16 25 -22 0 -6 -5 -8 -11 -4 -6 3 -62 0 -125 -7 -82 -9 -114 -16 -114 -26 0
-14 -24 -16 -171 -17 l-87 -1 -10 47 c-18 75 -69 171 -114 217 l-42 41 34 -6
c19 -3 53 -11 75 -16z m2765 13 c-8 -5 -26 -12 -40 -16 -24 -7 -24 -7 -5 9 11
8 29 15 40 15 16 0 17 -1 5 -8z m2003 -90 c9 -18 9 -25 1 -28 -14 -5 -1 -83
21 -130 20 -41 59 -52 135 -40 91 14 210 -16 241 -61 8 -10 24 -22 36 -26 11
-4 24 -18 27 -31 4 -14 13 -25 21 -25 8 0 22 -15 31 -32 9 -18 32 -56 50 -84
26 -38 36 -67 40 -113 7 -63 18 -78 29 -38 3 12 14 38 23 58 l16 36 38 -26
c31 -22 37 -32 38 -63 0 -29 -6 -41 -29 -57 -36 -26 -76 -27 -90 -3 -8 13 -10
7 -11 -31 0 -53 21 -113 48 -133 14 -11 15 -16 5 -33 -7 -12 -13 -26 -13 -33
0 -10 3 -9 9 1 7 11 10 9 16 -8 3 -11 14 -21 22 -21 9 0 14 -2 11 -6 -7 -6
-256 21 -386 42 -109 18 -144 32 -192 74 -73 64 -274 175 -437 239 -64 26 -91
43 -124 79 -23 26 -70 76 -104 112 -81 85 -142 168 -149 203 -18 84 -19 78 11
66 49 -19 211 -22 288 -5 133 28 182 44 229 71 55 32 61 40 31 40 -13 0 -21
-4 -18 -9 4 -5 -6 -6 -21 -2 -16 4 -25 3 -22 -2 3 -5 -18 -12 -47 -16 -73 -8
-125 -8 -131 3 -5 7 27 15 189 42 33 5 74 16 90 23 50 23 60 24 63 7 2 -9 8
-27 15 -40z m-2390 12 c-7 -2 -19 -2 -25 0 -7 3 -2 5 12 5 14 0 19 -2 13 -5z
m-167 -41 c-6 -5 -56 21 -56 29 0 5 13 0 29 -9 16 -9 28 -18 27 -20z m1821
-75 c15 3 32 -126 38 -297 3 -112 2 -136 -6 -105 -6 22 -21 81 -34 130 -30
111 -65 295 -65 338 0 32 1 32 28 -18 16 -27 33 -49 39 -48z m-6680 -273 c-3
-3 -12 -4 -19 -1 -8 3 -5 6 6 6 11 1 17 -2 13 -5z m8077 -127 c-3 -9 -10 -17
-15 -17 -11 0 -12 34 -2 44 11 11 24 -9 17 -27z m59 19 c3 -8 -1 -17 -9 -20
-9 -4 -14 1 -14 14 0 23 15 27 23 6z m-8003 -51 c-7 -9 -15 -13 -18 -10 -3 2
1 11 8 20 7 9 15 13 18 10 3 -2 -1 -11 -8 -20z m180 -15 c0 -5 -7 -7 -15 -4
-8 4 -15 8 -15 10 0 2 7 4 15 4 8 0 15 -4 15 -10z m-201 -46 c9 -9 -48 -3 -78
7 -52 18 -35 29 22 12 28 -8 54 -17 56 -19z m7111 -40 c116 -49 291 -156 331
-202 31 -36 51 -44 137 -59 17 -3 32 -10 32 -15 0 -6 11 -7 26 -4 l25 7 -20
-22 c-11 -13 -23 -31 -27 -41 -3 -10 -10 -18 -15 -18 -6 0 -7 -4 -4 -10 3 -5
1 -19 -6 -31 -9 -17 -13 -19 -20 -8 -6 10 -9 6 -9 -13 0 -15 -4 -30 -10 -33
-5 -3 -10 -14 -10 -23 0 -24 -48 -92 -62 -89 -7 1 -17 -8 -23 -20 -5 -13 -14
-23 -19 -23 -4 0 -3 -6 3 -14 20 -24 -43 -2 -223 76 -89 38 -176 75 -193 81
-34 12 -38 21 -34 70 2 22 -2 27 -21 28 -22 0 -22 1 -3 9 17 7 17 9 3 9 -10 1
-18 5 -18 10 0 13 90 31 152 31 48 0 50 1 36 18 -8 9 -27 48 -43 86 -16 38
-56 115 -90 172 l-62 102 41 -19 c23 -10 79 -35 126 -55z m-6930 56 c0 -5 -5
-10 -11 -10 -5 0 -7 5 -4 10 3 6 8 10 11 10 2 0 4 -4 4 -10z m1234 -30 c10
-13 9 -13 -6 -1 -10 7 -18 21 -17 30 0 13 1 14 6 1 3 -8 11 -22 17 -30z
m-1459 -50 c3 -5 -1 -10 -9 -10 -9 0 -16 5 -16 10 0 6 4 10 9 10 6 0 13 -4 16
-10z m366 -27 c19 -11 52 -26 74 -33 22 -7 34 -15 27 -18 -12 -4 -73 15 -127
38 -11 5 -31 10 -44 12 -14 2 -26 8 -28 13 -5 17 63 9 98 -12z m169 -53 c0 -5
18 -15 40 -21 22 -7 38 -14 36 -16 -8 -8 -100 24 -104 35 -2 7 3 12 12 12 9 0
16 -4 16 -10z m-340 -4 c0 -16 -14 -36 -25 -36 -14 0 -27 25 -18 34 7 7 43 8
43 2z m570 -6 c0 -13 -11 -13 -30 0 -12 8 -11 10 8 10 12 0 22 -4 22 -10z
m195 0 c13 -5 14 -9 5 -9 -8 0 -24 4 -35 9 -13 5 -14 9 -5 9 8 0 24 -4 35 -9z
m-698 -28 c-23 -5 -47 4 -47 17 0 6 13 5 33 -2 23 -8 27 -12 14 -15z m443 -14
c44 -25 51 -38 21 -38 -11 0 -23 9 -26 20 -4 13 -15 20 -31 20 -14 0 -22 4
-19 10 8 14 11 13 55 -12z m-355 -8 c-3 -5 -12 -7 -20 -3 -21 7 -19 13 6 13
11 0 18 -4 14 -10z m-272 -27 c4 -3 3 -11 -4 -19 -13 -16 -39 -2 -39 22 0 12
17 11 43 -3z m371 2 c14 -11 16 -15 5 -15 -26 0 -59 12 -59 21 0 14 33 10 54
-6z m485 1 c-15 -13 -49 -25 -49 -17 0 5 8 12 18 14 24 6 36 8 31 3z m-595
-21 c3 -9 0 -15 -9 -15 -9 0 -12 6 -9 15 4 8 7 15 9 15 2 0 5 -7 9 -15z m721
-26 c15 -15 -8 -11 -45 7 -18 10 -35 13 -39 7 -3 -5 -19 -6 -36 -3 l-30 7 35
10 c34 9 89 -4 115 -28z m-477 -5 c4 -4 -5 -4 -20 0 -38 9 -78 25 -78 30 0 7
90 -21 98 -30z m255 19 c-7 -2 -21 -2 -30 0 -10 3 -4 5 12 5 17 0 24 -2 18 -5z
m-532 -18 c44 -19 8 -19 -41 0 -26 10 -29 14 -14 14 12 1 37 -6 55 -14z m1254
5 c16 -7 11 -9 -20 -9 -29 -1 -36 2 -25 9 17 11 19 11 45 0z m-925 -20 c18
-12 2 -12 -25 0 -13 6 -15 9 -5 9 8 0 22 -4 30 -9z m530 -11 c0 -5 -11 -9 -25
-9 -33 0 -33 15 0 16 14 1 25 -2 25 -7z m-1007 -16 c18 -10 46 -23 62 -30 26
-10 20 -11 -40 -6 -84 7 -115 17 -115 38 0 21 52 20 93 -2z m192 -3 c15 -6 44
-11 66 -12 21 -1 36 -5 34 -9 -6 -9 -144 -33 -151 -26 -4 4 16 57 22 57 1 0
15 -5 29 -10z m458 -7 c-7 -2 -19 -2 -25 0 -7 3 -2 5 12 5 14 0 19 -2 13 -5z
m424 1 c-3 -3 -12 -4 -19 -1 -8 3 -5 6 6 6 11 1 17 -2 13 -5z m138 1 c-23 -8
-83 -10 -79 -3 3 4 24 8 47 7 23 0 38 -2 32 -4z m-422 -36 c33 -11 72 -19 88
-19 16 0 29 -4 29 -9 0 -21 -172 19 -200 47 -13 13 -13 14 5 7 11 -4 46 -16
78 -26z m515 24 c-10 -2 -26 -2 -35 0 -10 3 -2 5 17 5 19 0 27 -2 18 -5z
m-949 -27 c7 -8 29 -17 49 -21 21 -3 44 -11 52 -16 12 -8 11 -9 -5 -5 -11 3
-57 10 -102 17 -80 12 -102 23 -65 32 35 9 60 7 71 -7z m326 -46 c-11 -5 -29
-9 -40 -9 l-20 0 20 9 c11 5 29 9 40 9 l20 0 -20 -9z m-585 -19 c0 -12 -28
-18 -58 -13 -18 4 -20 7 -10 13 18 12 68 11 68 0z m475 -21 c3 -5 -4 -6 -15
-3 -11 3 -22 9 -25 13 -3 5 4 6 15 3 11 -3 22 -9 25 -13z m6212 -46 c-3 -3
-12 -4 -19 -1 -8 3 -5 6 6 6 11 1 17 -2 13 -5z m173 -39 c55 -27 474 -196 550
-221 l55 -18 -85 -12 c-104 -16 -420 -44 -489 -44 -27 0 -52 4 -55 9 -3 5 -18
12 -32 15 -60 15 -484 214 -484 227 0 4 24 12 53 18 92 20 401 58 422 53 11
-2 40 -15 65 -27z m425 -135 c-3 -5 -1 -10 6 -10 7 0 10 -3 6 -6 -9 -9 -28 6
-22 17 4 5 8 9 11 9 3 0 2 -4 -1 -10z m-3855 -189 c-19 -16 -37 -27 -40 -24
-7 6 48 53 63 53 6 0 -4 -13 -23 -29z m-242 -19 c2 -7 -3 -12 -12 -12 -9 0
-16 7 -16 16 0 17 22 14 28 -4z m393 -35 c-17 -17 -34 -28 -37 -24 -10 10 47
68 59 60 5 -3 -5 -19 -22 -36z m179 -20 c0 -2 -10 -12 -22 -23 l-23 -19 19 23
c18 21 26 27 26 19z m2337 -13 c-3 -3 -12 -4 -19 -1 -8 3 -5 6 6 6 11 1 17 -2
13 -5z m40 -10 c-7 -7 -269 -65 -279 -62 -5 2 19 12 54 22 34 10 72 22 83 26
30 13 153 25 142 14z m313 -14 c18 -12 -39 -12 -85 0 -26 7 -24 8 20 9 28 0
57 -4 65 -9z m-2462 -17 c2 -8 -5 -13 -16 -13 -12 0 -29 -11 -40 -25 -20 -25
-46 -33 -56 -17 -2 4 7 23 21 41 20 26 31 31 56 29 17 -2 32 -9 35 -15z m2252
7 c0 -5 -13 -10 -29 -10 -16 0 -38 -3 -48 -6 -12 -5 -15 -4 -8 4 18 19 85 28
85 12z m-7628 -54 c46 -14 160 -45 253 -69 314 -83 778 -213 1673 -468 95 -27
175 -49 179 -49 3 0 4 -2 1 -5 -5 -5 -58 6 -323 70 -60 15 -353 96 -650 180
-297 84 -702 199 -900 255 -198 56 -362 103 -364 106 -12 12 57 1 131 -20z
m7113 -35 c-11 -10 -69 -33 -130 -51 -416 -120 -423 -122 -431 -109 -3 5 4 9
15 9 11 0 23 4 26 10 9 15 142 53 156 44 7 -4 9 -3 6 3 -8 13 44 33 82 33 15
0 32 5 37 10 9 9 221 68 249 70 5 0 1 -8 -10 -19z m185 4 c0 -23 -26 -29 -73
-18 l-42 9 45 11 c63 15 70 15 70 -2z m785 -4 c-6 -5 -21 -11 -35 -15 -21 -5
-20 -3 5 9 35 17 42 18 30 6z m-2815 -16 c0 -8 -7 -15 -15 -15 -26 0 -18 20
13 29 1 1 2 -6 2 -14z m2594 -60 c-88 -29 -178 -56 -200 -59 -21 -4 -3 5 41
18 44 14 127 41 185 60 58 19 112 34 120 34 8 0 -57 -24 -146 -53z m-444 0
c104 -22 178 -43 157 -44 -10 -1 -232 47 -272 58 -61 18 3 10 115 -14z m1735
15 c-3 -5 -12 -10 -18 -10 -7 0 -6 4 3 10 19 12 23 12 15 0z m-210 -61 c-448
-141 -717 -218 -969 -279 -88 -21 -219 -57 -290 -79 -71 -23 -132 -39 -134
-36 -6 6 235 80 388 119 74 19 227 63 340 99 274 87 327 103 520 153 169 44
252 57 145 23z m-1328 -5 c-3 -3 -12 -4 -19 -1 -8 3 -5 6 6 6 11 1 17 -2 13
-5z m-1882 -44 c3 -5 1 -10 -4 -10 -6 0 -11 5 -11 10 0 6 2 10 4 10 3 0 8 -4
11 -10z m805 0 c0 -5 -4 -10 -10 -10 -5 0 -10 5 -10 10 0 6 5 10 10 10 6 0 10
-4 10 -10z m-40 -10 c-8 -5 -19 -10 -25 -10 -5 0 -3 5 5 10 8 5 20 10 25 10 6
0 3 -5 -5 -10z m777 -6 c-3 -3 -12 -4 -19 -1 -8 3 -5 6 6 6 11 1 17 -2 13 -5z
m50 -10 c-3 -3 -12 -4 -19 -1 -8 3 -5 6 6 6 11 1 17 -2 13 -5z m-130 -10 c-3
-3 -12 -4 -19 -1 -8 3 -5 6 6 6 11 1 17 -2 13 -5z m-4097 -64 c8 -5 11 -10 5
-10 -5 0 -17 5 -25 10 -8 5 -10 10 -5 10 6 0 17 -5 25 -10z m3045 -1 c4 -5 -4
-9 -17 -9 -13 0 -34 -3 -48 -6 l-25 -5 23 13 c27 17 60 20 67 7z m-95 -13 c0
-3 -4 -8 -10 -11 -5 -3 -10 -1 -10 4 0 6 5 11 10 11 6 0 10 -2 10 -4z m-235
-45 c3 -6 -4 -15 -15 -21 -22 -12 -23 -10 -14 14 7 18 20 21 29 7z m-535 -171
c-8 -5 -22 -9 -30 -9 -10 0 -8 3 5 9 27 12 43 12 25 0z m-60 -20 c-8 -5 -22
-9 -30 -9 -10 0 -8 3 5 9 27 12 43 12 25 0z"/>
<path d="M5480 8285 c-84 -51 -75 -60 62 -63 65 -1 132 2 150 7 25 7 1 9 -99
10 -73 1 -133 5 -133 9 0 5 23 19 51 32 28 13 53 28 55 32 12 19 -35 4 -86
-27z"/>
<path d="M4309 8219 c-127 -62 -139 -72 -139 -118 0 -22 -10 -49 -26 -73 -31
-44 -43 -123 -25 -157 7 -11 15 -21 19 -21 4 1 34 44 67 96 82 130 174 261
202 287 23 23 29 37 15 37 -5 0 -56 -23 -113 -51z"/>
<path d="M6728 8035 c3 -20 7 -23 17 -15 10 8 16 6 24 -7 6 -10 11 -13 11 -7
0 10 -41 54 -52 54 -3 0 -3 -11 0 -25z"/>
<path d="M3600 7986 c7 -7 13 -7 20 0 6 6 3 10 -10 10 -13 0 -16 -4 -10 -10z"/>
<path d="M5160 7510 c0 -6 48 -59 106 -118 108 -109 126 -111 31 -3 -61 70
-137 137 -137 121z"/>
<path d="M7131 7184 c0 -11 3 -14 6 -6 3 7 2 16 -1 19 -3 4 -6 -2 -5 -13z"/>
<path d="M7120 7140 c0 -5 5 -10 10 -10 6 0 10 5 10 10 0 6 -4 10 -10 10 -5 0
-10 -4 -10 -10z"/>
<path d="M7080 7101 c0 -11 -9 -23 -21 -26 -17 -6 -19 -9 -8 -16 21 -13 29
-11 29 7 0 11 6 15 20 11 16 -4 20 0 20 19 0 17 -6 24 -20 24 -13 0 -20 -7
-20 -19z"/>
<path d="M6170 6452 c0 -14 27 -23 47 -15 13 5 15 3 9 -13 -5 -14 -4 -16 5 -7
15 15 2 36 -18 29 -9 -4 -22 -1 -29 5 -9 7 -14 8 -14 1z"/>
<path d="M6291 6383 c-21 -18 -21 -18 -2 -30 15 -10 20 -9 25 2 3 10 0 12 -12
8 -15 -6 -14 -3 2 15 23 26 16 29 -13 5z"/>
<path d="M7481 9451 l-1 -133 25 4 c15 3 22 1 18 -5 -4 -7 7 -8 32 -4 45 7 55
15 35 27 -13 8 -13 10 2 10 11 0 15 6 11 19 -3 10 0 22 6 25 13 8 15 46 3 46
-4 0 -8 12 -7 28 0 24 -4 28 -40 32 -33 4 -42 1 -52 -15 -11 -18 -12 -17 -14
15 0 19 -5 46 -9 60 -5 15 -8 -26 -9 -109z m66 33 c-3 -3 -12 -4 -19 -1 -8 3
-5 6 6 6 11 1 17 -2 13 -5z"/>
<path d="M2520 8181 c0 -6 4 -13 10 -16 6 -3 7 1 4 9 -7 18 -14 21 -14 7z"/>
<path d="M2520 8125 c7 -8 22 -14 34 -14 20 2 20 2 -1 6 -13 2 -23 9 -23 14 0
5 -5 9 -11 9 -8 0 -8 -5 1 -15z"/>
<path d="M2480 8116 c0 -2 7 -7 16 -10 8 -3 12 -2 9 4 -6 10 -25 14 -25 6z"/>
<path d="M2390 8141 c0 -10 19 -25 25 -20 1 2 -3 10 -11 17 -8 7 -14 8 -14 3z"/>
<path d="M3472 7934 c-14 -16 -5 -18 17 -5 7 5 9 11 5 14 -5 3 -15 -1 -22 -9z"/>
<path d="M3450 7890 c0 -5 5 -10 10 -10 6 0 10 5 10 10 0 6 -4 10 -10 10 -5 0
-10 -4 -10 -10z"/>
<path d="M9949 7228 c-5 -16 -3 -58 3 -58 4 0 8 14 8 30 0 17 -2 30 -5 30 -3
0 -5 -1 -6 -2z"/>
<path d="M350 6551 c8 -6 26 -11 39 -11 14 0 33 -8 43 -17 18 -16 18 -16 12 0
-5 13 -2 16 10 11 21 -8 21 -30 0 -42 -15 -8 -15 -10 0 -15 9 -4 15 -3 15 1
-3 23 15 52 30 48 19 -6 57 -12 134 -21 38 -4 57 -11 57 -20 0 -11 13 -13 53
-11 28 2 66 0 82 -4 l30 -8 -34 -1 c-44 -1 -37 -7 18 -14 29 -4 40 -2 30 4 -7
5 -9 9 -3 9 5 0 14 -4 20 -9 8 -9 125 -32 149 -30 20 2 -41 17 -75 19 -34 2
-34 2 -8 10 15 4 44 4 65 -1 21 -5 53 -9 72 -9 25 0 32 -4 28 -15 -5 -11 -2
-12 17 -4 23 11 36 9 284 -42 24 -5 48 -11 53 -14 5 -4 9 -2 9 4 0 10 16 9
130 -3 19 -3 62 -7 95 -11 33 -3 83 -10 110 -15 28 -5 74 -12 104 -16 39 -4
50 -9 40 -16 -10 -7 -1 -8 26 -4 27 4 35 2 25 -4 -11 -7 -5 -10 23 -11 20 -1
40 -2 45 -3 4 -1 26 -6 50 -10 23 -4 42 -12 42 -17 0 -18 22 -9 27 12 5 17 11
20 42 15 20 -2 43 -8 52 -11 10 -4 19 -2 23 3 7 12 -128 36 -439 77 -305 41
-692 96 -925 130 -419 62 -628 85 -600 66z"/>
<path d="M736 6461 c-3 -4 6 -6 19 -3 14 2 25 6 25 8 0 8 -39 4 -44 -5z"/>
<path d="M700 6442 c0 -5 7 -13 16 -16 22 -8 24 -8 24 6 0 6 -3 8 -7 5 -3 -4
-12 -2 -20 4 -8 7 -13 8 -13 1z"/>
<path d="M1075 6420 c3 -5 8 -10 11 -10 2 0 4 5 4 10 0 6 -5 10 -11 10 -5 0
-7 -4 -4 -10z"/>
<path d="M648 6413 c7 -3 16 -2 19 1 4 3 -2 6 -13 5 -11 0 -14 -3 -6 -6z"/>
<path d="M736 6391 c-17 -6 -17 -8 -3 -14 8 -3 21 1 27 9 13 15 6 17 -24 5z"/>
<path d="M780 6389 c0 -5 5 -7 10 -4 6 3 10 8 10 11 0 2 -4 4 -10 4 -5 0 -10
-5 -10 -11z"/>
<path d="M858 6383 c6 -2 18 -2 25 0 6 3 1 5 -13 5 -14 0 -19 -2 -12 -5z"/>
<path d="M918 6373 c6 -2 18 -2 25 0 6 3 1 5 -13 5 -14 0 -19 -2 -12 -5z"/>
<path d="M1015 6279 c-4 -6 -5 -12 -2 -15 2 -3 7 2 10 11 7 17 1 20 -8 4z"/>
<path d="M2245 6263 c17 -3 36 -9 43 -15 8 -7 12 -7 12 0 0 13 -26 22 -58 21
-26 -2 -26 -2 3 -6z"/>
<path d="M463 5943 c9 -2 14 -9 11 -15 -4 -7 -2 -8 5 -4 15 10 4 26 -17 25
-15 -1 -15 -2 1 -6z"/>
<path d="M475 5900 c3 -5 8 -10 11 -10 2 0 4 5 4 10 0 6 -5 10 -11 10 -5 0 -7
-4 -4 -10z"/>
<path d="M497 5883 c-10 -10 -8 -23 4 -23 5 0 8 4 4 9 -3 5 7 12 22 14 28 4
28 4 2 6 -14 0 -29 -2 -32 -6z"/>
<path d="M525 5860 c-7 -11 22 -26 32 -16 4 3 -2 6 -13 7 -18 0 -18 1 1 9 16
7 17 9 3 9 -9 1 -20 -4 -23 -9z"/>
<path d="M428 5853 c7 -3 16 -2 19 1 4 3 -2 6 -13 5 -11 0 -14 -3 -6 -6z"/>
<path d="M473 5575 c0 -8 6 -16 14 -19 11 -4 11 -1 3 14 -13 24 -17 25 -17 5z"/>
<path d="M528 5573 c6 -2 18 -2 25 0 6 3 1 5 -13 5 -14 0 -19 -2 -12 -5z"/>
<path d="M428 5423 c7 -3 16 -2 19 1 4 3 -2 6 -13 5 -11 0 -14 -3 -6 -6z"/>
<path d="M462 5414 c-14 -16 -5 -18 17 -5 7 5 9 11 5 14 -5 3 -15 -1 -22 -9z"/>
<path d="M504 5348 c-3 -4 4 -8 15 -8 11 0 22 4 26 9 3 6 -4 9 -16 8 -11 -1
-23 -5 -25 -9z"/>
<path d="M851 5324 c0 -11 3 -14 6 -6 3 7 2 16 -1 19 -3 4 -6 -2 -5 -13z"/>
<path d="M504 5284 c-18 -14 -18 -15 4 -4 12 6 22 13 22 15 0 8 -5 6 -26 -11z"/>
<path d="M475 5110 c3 -5 1 -10 -6 -10 -24 0 -47 -30 -41 -53 6 -20 7 -19 12
8 3 17 8 28 11 25 3 -3 13 1 22 9 11 9 17 10 17 2 0 -16 29 -14 46 4 14 13 14
15 1 15 -9 0 -18 -6 -21 -12 -3 -10 -9 -8 -19 5 -15 18 -32 24 -22 7z"/>
<path d="M410 5099 c0 -5 5 -7 10 -4 6 3 10 8 10 11 0 2 -4 4 -10 4 -5 0 -10
-5 -10 -11z"/>
<path d="M381 5054 c0 -11 3 -14 6 -6 3 7 2 16 -1 19 -3 4 -6 -2 -5 -13z"/>
<path d="M548 5033 c6 -2 18 -2 25 0 6 3 1 5 -13 5 -14 0 -19 -2 -12 -5z"/>
<path d="M445 5020 c-4 -6 -11 -8 -16 -5 -5 4 -9 1 -9 -4 0 -17 27 -13 34 4 6
17 0 20 -9 5z"/>
<path d="M454 4983 c10 -10 56 -15 56 -6 0 4 -14 9 -31 10 -18 1 -29 -1 -25
-4z"/>
<path d="M599 4923 c-13 -16 -12 -17 4 -4 9 7 17 15 17 17 0 8 -8 3 -21 -13z"/>
<path d="M461 4914 c-7 -9 -10 -19 -5 -24 5 -5 14 2 21 16 13 27 5 31 -16 8z"/>
<path d="M383 4875 c0 -27 2 -38 4 -22 2 15 2 37 0 50 -2 12 -4 0 -4 -28z"/>
<path d="M556 4858 c3 -4 11 -5 19 -1 21 7 19 12 -4 10 -11 0 -18 -5 -15 -9z"/>
<path d="M610 4855 c0 -8 8 -15 18 -15 13 0 14 2 3 9 -11 7 -11 9 0 14 10 4 9
6 -3 6 -10 1 -18 -6 -18 -14z"/>
<path d="M605 4740 c3 -5 8 -10 11 -10 2 0 4 5 4 10 0 6 -5 10 -11 10 -5 0 -7
-4 -4 -10z"/>
<path d="M631 4734 c0 -11 3 -14 6 -6 3 7 2 16 -1 19 -3 4 -6 -2 -5 -13z"/>
<path d="M1288 4673 c7 -3 16 -2 19 1 4 3 -2 6 -13 5 -11 0 -14 -3 -6 -6z"/>
<path d="M4800 5606 c-76 -27 -240 -103 -240 -110 0 -7 15 -1 145 56 61 27
128 51 150 55 54 8 80 22 40 22 -16 1 -59 -10 -95 -23z"/>
<path d="M3780 5406 c0 -2 8 -10 18 -17 15 -13 16 -12 3 4 -13 16 -21 21 -21
13z"/>
<path d="M5065 5230 l-30 -8 38 -2 c20 -1 42 -4 47 -5 6 -1 17 -3 25 -4 9 0
38 -22 65 -47 51 -48 90 -114 90 -153 0 -14 4 -20 11 -15 8 4 10 29 6 70 l-5
64 27 -19 c35 -25 81 -72 81 -82 0 -5 5 -9 11 -9 20 0 -1 53 -34 88 -40 42
-135 95 -206 116 -58 17 -79 18 -126 6z"/>
<path d="M4888 5183 c7 -3 16 -2 19 1 4 3 -2 6 -13 5 -11 0 -14 -3 -6 -6z"/>
<path d="M4935 5180 c-16 -7 -17 -9 -3 -9 9 -1 20 4 23 9 7 11 7 11 -20 0z"/>
<path d="M5059 4888 c-6 -12 -31 -46 -55 -75 -24 -28 -44 -55 -44 -59 0 -17
93 83 107 115 16 38 11 54 -8 19z"/>
<path d="M5097 4820 c8 -91 25 -124 19 -39 -2 37 -8 75 -14 85 -8 14 -9 2 -5
-46z"/>
<path d="M5930 4161 c-26 -51 -45 -65 -36 -25 5 23 4 26 -4 11 -6 -9 -8 -27
-5 -38 5 -16 3 -20 -6 -17 -14 5 -38 -19 -38 -37 0 -5 4 -2 10 8 14 24 33 22
19 -2 -16 -32 -12 -36 14 -12 13 12 26 19 28 14 3 -4 3 -3 2 4 -2 6 4 17 11
23 8 7 19 26 24 44 5 17 12 39 16 49 14 35 -15 16 -35 -22z"/>
<path d="M5890 3950 c0 -5 7 -10 15 -10 8 0 15 5 15 10 0 6 -7 10 -15 10 -8 0
-15 -4 -15 -10z"/>
<path d="M6200 3912 c0 -12 3 -12 15 -2 8 7 15 13 15 15 0 1 -7 2 -15 2 -8 0
-15 -7 -15 -15z"/>
<path d="M6420 3885 c-11 -13 -10 -14 4 -9 9 3 16 10 16 15 0 13 -6 11 -20 -6z"/>
<path d="M7210 4635 c0 -5 5 -17 10 -25 5 -8 10 -10 10 -5 0 6 -5 17 -10 25
-5 8 -10 11 -10 5z"/>
<path d="M7266 4513 c-6 -14 -5 -15 5 -6 7 7 10 15 7 18 -3 3 -9 -2 -12 -12z"/>
<path d="M7450 4385 c0 -8 5 -15 10 -15 6 0 10 7 10 15 0 8 -4 15 -10 15 -5 0
-10 -7 -10 -15z"/>
<path d="M7490 4370 c0 -5 5 -10 11 -10 5 0 7 5 4 10 -3 6 -8 10 -11 10 -2 0
-4 -4 -4 -10z"/>
<path d="M7857 3745 c3 -27 9 -68 13 -90 l8 -40 1 40 c0 22 -6 63 -14 90 l-14
50 6 -50z"/>
<path d="M3385 4640 c-3 -5 1 -10 10 -10 9 0 13 5 10 10 -3 6 -8 10 -10 10 -2
0 -7 -4 -10 -10z"/>
<path d="M3420 4626 c0 -2 7 -7 16 -10 8 -3 12 -2 9 4 -6 10 -25 14 -25 6z"/>
<path d="M3100 4520 c0 -5 5 -10 10 -10 6 0 10 5 10 10 0 6 -4 10 -10 10 -5 0
-10 -4 -10 -10z"/>
<path d="M3050 4500 c-12 -8 -11 -10 7 -10 12 0 25 5 28 10 8 13 -15 13 -35 0z"/>
<path d="M3186 4472 c5 -4 12 -11 15 -15 3 -5 9 -2 12 5 3 9 -3 14 -15 15 -11
1 -16 -1 -12 -5z"/>
<path d="M3070 4417 c0 -21 4 -25 25 -24 14 1 25 5 25 10 0 4 0 14 0 23 0 8
-5 12 -10 9 -6 -4 -7 -12 -3 -18 3 -7 -3 -3 -15 7 -22 19 -22 19 -22 -7z"/>
<path d="M2880 4416 c0 -9 30 -14 35 -6 4 6 -3 10 -14 10 -12 0 -21 -2 -21 -4z"/>
<path d="M2785 4350 c-3 -5 -1 -10 4 -10 6 0 11 5 11 10 0 6 -2 10 -4 10 -3 0
-8 -4 -11 -10z"/>
<path d="M3320 4274 c0 -6 7 -19 15 -30 8 -10 14 -14 14 -9 0 6 -6 19 -14 29
-8 11 -15 15 -15 10z"/>
<path d="M7338 3958 c1 -90 5 -173 7 -185 4 -17 28 -34 85 -63 44 -22 83 -40
86 -40 13 0 -6 103 -26 142 -11 21 -20 45 -20 53 0 11 -9 14 -35 10 l-35 -4 0
67 c-1 65 -34 172 -56 179 -5 2 -8 -70 -6 -159z"/>
<path d="M6517 3632 c-19 -21 -22 -32 -7 -32 6 0 10 5 10 11 0 7 8 18 18 25 9
7 12 14 6 14 -6 0 -18 -8 -27 -18z"/>
<path d="M6285 3610 c-3 -5 -1 -10 4 -10 6 0 11 5 11 10 0 6 -2 10 -4 10 -3 0
-8 -4 -11 -10z"/>
<path d="M6247 3572 c-10 -10 -14 -22 -10 -25 3 -4 13 2 21 14 18 26 10 35
-11 11z"/>
<path d="M7580 3558 c-11 -18 -20 -41 -20 -50 0 -17 38 -50 98 -84 33 -19 34
-19 48 0 8 11 14 25 14 30 -1 6 -28 39 -60 74 l-60 63 -20 -33z"/>
<path d="M6960 3515 c0 -25 5 -45 10 -45 6 0 10 20 10 45 0 25 -4 45 -10 45
-5 0 -10 -20 -10 -45z"/>
<path d="M7337 3543 c-3 -10 -17 -36 -31 -59 -18 -29 -21 -41 -12 -41 8 0 12
6 9 14 -3 7 0 13 6 13 12 0 25 -43 18 -62 -2 -7 0 -23 4 -35 5 -13 4 -25 -1
-28 -6 -4 -10 -1 -10 4 0 6 -7 11 -16 11 -11 0 -14 -5 -9 -17 4 -10 8 -29 9
-43 0 -14 6 -29 11 -33 6 -6 6 -10 -2 -14 -15 -5 -18 -33 -4 -33 5 0 11 3 14
8 2 4 2 1 0 -6 -6 -26 9 -32 26 -11 19 24 41 19 41 -9 0 -15 9 -18 53 -18 35
0 64 -6 82 -18 23 -15 29 -16 37 -5 13 20 47 93 44 96 -1 2 -20 -6 -41 -17
-29 -15 -49 -18 -79 -13 -23 3 -43 7 -45 9 -2 2 11 38 29 81 50 120 52 130 28
153 -12 11 -23 18 -25 16 -7 -7 -53 -173 -53 -193 0 -27 -3 -28 -35 -7 -24 16
-25 19 -25 145 0 117 -9 158 -23 112z m4 -37 c-9 -11 -10 -20 -2 -35 17 -30
13 -38 -5 -12 -13 18 -14 28 -5 48 7 14 14 23 18 20 3 -4 0 -13 -6 -21z"/>
<path d="M7256 3393 c-10 -21 -15 -35 -10 -31 4 4 14 2 23 -5 14 -11 14 -10 2
6 -11 13 -11 20 -1 32 6 8 10 19 8 25 -2 7 -12 -6 -22 -27z"/>
<path d="M7041 3394 c0 -11 3 -14 6 -6 3 7 2 16 -1 19 -3 4 -6 -2 -5 -13z"/>
<path d="M6453 3381 l-23 -19 23 2 c14 0 23 7 23 18 0 10 0 18 -1 18 0 -1 -10
-9 -22 -19z"/>
<path d="M7031 3354 c0 -11 3 -14 6 -6 3 7 2 16 -1 19 -3 4 -6 -2 -5 -13z"/>
<path d="M7233 3340 c-8 -9 -8 -16 2 -29 8 -9 23 -27 34 -41 10 -14 23 -21 27
-17 5 4 2 12 -5 16 -10 7 -11 9 -1 13 10 3 8 11 -5 32 -17 26 -20 27 -26 10
-6 -17 -7 -17 -10 4 -3 18 -7 20 -16 12z"/>
<path d="M3590 4070 c6 -11 13 -20 16 -20 2 0 0 9 -6 20 -6 11 -13 20 -16 20
-2 0 0 -9 6 -20z"/>
<path d="M3610 4020 c0 -5 5 -10 11 -10 5 0 7 5 4 10 -3 6 -8 10 -11 10 -2 0
-4 -4 -4 -10z"/>
<path d="M3581 3990 c0 -8 3 -21 8 -28 7 -11 9 -10 14 3 4 9 3 13 -2 10 -5 -3
-12 3 -14 12 -3 13 -5 14 -6 3z"/>
<path d="M3633 3976 c7 -13 15 -22 19 -20 8 5 -13 44 -23 44 -4 0 -2 -11 4
-24z"/>
<path d="M3648 3923 c7 -3 16 -2 19 1 4 3 -2 6 -13 5 -11 0 -14 -3 -6 -6z"/>
<path d="M3600 3909 c0 -5 5 -7 10 -4 6 3 10 8 10 11 0 2 -4 4 -10 4 -5 0 -10
-5 -10 -11z"/>
<path d="M4308 3773 c7 -3 16 -2 19 1 4 3 -2 6 -13 5 -11 0 -14 -3 -6 -6z"/>
<path d="M2895 3630 c10 -11 20 -20 23 -20 3 0 -3 9 -13 20 -10 11 -20 20 -23
20 -3 0 3 -9 13 -20z"/>
<path d="M2958 3548 c10 -13 10 -17 0 -20 -8 -3 -9 -6 -1 -11 18 -12 23 21 5
35 -15 11 -16 11 -4 -4z"/>
<path d="M2976 3475 c6 -31 11 -41 18 -34 2 2 -2 18 -10 34 l-14 30 6 -30z"/>
<path d="M4502 3455 c4 -25 48 -34 48 -10 0 12 -5 15 -17 11 -9 -4 -20 -1 -25
6 -6 9 -8 7 -6 -7z"/>
<path d="M2680 3610 c-21 -7 -21 -8 -5 -9 11 0 27 4 35 9 18 11 5 11 -30 0z"/>
<path d="M2620 3536 c0 -2 7 -7 16 -10 8 -3 12 -2 9 4 -6 10 -25 14 -25 6z"/>
<path d="M2880 3394 c0 -13 18 -39 24 -34 2 3 -2 14 -10 24 -8 11 -14 16 -14
10z"/>
<path d="M2103 3366 c16 -7 33 -19 38 -27 8 -12 11 -11 19 3 9 14 16 15 36 8
26 -10 81 -14 72 -5 -5 5 -90 21 -158 30 l-35 4 28 -13z"/>
<path d="M2071 3324 c0 -11 3 -14 6 -6 3 7 2 16 -1 19 -3 4 -6 -2 -5 -13z"/>
<path d="M2600 3326 c0 -2 7 -9 15 -16 9 -7 15 -8 15 -2 0 5 -7 12 -15 16 -8
3 -15 4 -15 2z"/>
<path d="M2160 3290 c0 -5 5 -10 10 -10 6 0 10 5 10 10 0 6 -4 10 -10 10 -5 0
-10 -4 -10 -10z"/>
<path d="M2385 3100 c3 -5 8 -10 11 -10 2 0 4 5 4 10 0 6 -5 10 -11 10 -5 0
-7 -4 -4 -10z"/>
<path d="M2419 2923 c12 -24 31 -39 31 -25 0 5 -10 17 -21 28 -22 19 -22 19
-10 -3z"/>
<path d="M5728 2703 c7 -3 16 -2 19 1 4 3 -2 6 -13 5 -11 0 -14 -3 -6 -6z"/>
<path d="M6151 2624 c0 -11 3 -14 6 -6 3 7 2 16 -1 19 -3 4 -6 -2 -5 -13z"/>
<path d="M6078 2619 c4 -3 20 -9 36 -13 24 -6 26 -5 15 6 -8 8 -24 14 -36 14
-13 0 -19 -3 -15 -7z"/>
<path d="M6210 2616 c0 -2 7 -9 15 -16 9 -7 15 -8 15 -2 0 5 -7 12 -15 16 -8
3 -15 4 -15 2z"/>
<path d="M7300 2420 c0 -5 5 -10 10 -10 6 0 10 5 10 10 0 6 -4 10 -10 10 -5 0
-10 -4 -10 -10z"/>
<path d="M211 2653 c23 -43 48 -90 56 -105 14 -27 43 -45 43 -27 0 31 -108
209 -127 209 -10 0 -2 -23 28 -77z"/>
<path d="M5560 2640 c8 -5 33 -10 55 -10 38 -1 116 -27 85 -29 -36 -3 17 -21
60 -21 38 0 42 2 30 14 -21 20 -150 56 -201 56 -32 0 -40 -3 -29 -10z"/>
<path d="M5077 2393 c4 -9 9 -10 18 -3 6 5 15 8 18 5 4 -3 5 -2 2 2 -10 13
-43 10 -38 -4z"/>
<path d="M6480 2386 c0 -2 7 -7 16 -10 8 -3 12 -2 9 4 -6 10 -25 14 -25 6z"/>
<path d="M6491 2341 c-9 -6 -10 -11 -2 -15 6 -4 11 -2 11 5 0 6 8 9 20 6 11
-3 18 -1 14 4 -7 11 -25 11 -43 0z"/>
<path d="M7416 2467 c3 -10 9 -15 12 -12 3 3 0 11 -7 18 -10 9 -11 8 -5 -6z"/>
<path d="M4685 2090 c-3 -5 3 -10 14 -10 12 0 21 5 21 10 0 6 -6 10 -14 10 -8
0 -18 -4 -21 -10z"/>
<path d="M9930 1712 c0 -5 6 -16 13 -26 12 -17 14 -16 25 8 11 24 10 26 -13
26 -14 0 -25 -4 -25 -8z"/>
<path d="M8938 1313 c7 -3 16 -2 19 1 4 3 -2 6 -13 5 -11 0 -14 -3 -6 -6z"/>
<path d="M9252 6570 c-29 -4 -56 -10 -58 -13 -10 -10 155 2 173 12 15 8 10 10
-22 9 -22 0 -64 -4 -93 -8z"/>
<path d="M10040 6346 c0 -3 19 -15 43 -27 23 -12 68 -39 100 -60 l57 -39 0 54
0 54 -67 7 c-38 3 -83 8 -100 11 -18 3 -33 3 -33 0z"/>
<path d="M10134 6036 c53 -90 67 -243 37 -387 -7 -30 -8 -26 -13 32 -9 108
-51 182 -148 260 -90 73 -167 99 -223 76 -43 -19 -132 -124 -165 -196 -24 -53
-25 -58 -19 -220 4 -91 11 -179 16 -196 8 -23 10 -6 8 73 -1 56 1 102 6 102 4
0 7 -4 7 -9 0 -12 192 -303 196 -298 4 4 -24 193 -32 220 -11 35 13 16 50 -40
58 -88 135 -253 171 -366 l33 -102 1 63 c1 39 5 61 11 57 13 -8 66 -184 80
-265 10 -62 25 -116 69 -260 l20 -65 0 738 1 738 -32 17 c-18 9 -45 29 -61 45
-40 38 -43 34 -13 -17z"/>
<path d="M2483 1983 c9 -2 23 -2 30 0 6 3 -1 5 -18 5 -16 0 -22 -2 -12 -5z"/>
<path d="M3550 1540 c0 -5 5 -10 11 -10 5 0 7 5 4 10 -3 6 -8 10 -11 10 -2 0
-4 -4 -4 -10z"/>
<path d="M4620 1345 c-8 -2 -59 -11 -113 -20 -73 -13 -97 -21 -93 -30 3 -8 0
-15 -6 -17 -7 -3 -9 -11 -6 -20 6 -14 14 -14 85 -1 43 8 84 19 90 25 10 8 13
5 13 -10 0 -25 18 -32 48 -19 18 8 22 18 22 54 0 43 -3 45 -40 38z m2 -77 c-7
-7 -12 -8 -12 -2 0 14 12 26 19 19 2 -3 -1 -11 -7 -17z"/>
<path d="M7088 1243 c7 -3 16 -2 19 1 4 3 -2 6 -13 5 -11 0 -14 -3 -6 -6z"/>
<path d="M6958 1223 c7 -3 16 -2 19 1 4 3 -2 6 -13 5 -11 0 -14 -3 -6 -6z"/>
<path d="M6888 1213 c7 -3 16 -2 19 1 4 3 -2 6 -13 5 -11 0 -14 -3 -6 -6z"/>
<path d="M6798 1203 c7 -3 16 -2 19 1 4 3 -2 6 -13 5 -11 0 -14 -3 -6 -6z"/>
<path d="M6095 1180 c17 -4 48 -8 70 -8 34 0 36 1 15 8 -14 4 -45 8 -70 8 -40
0 -42 -1 -15 -8z"/>
<path d="M6448 1173 c12 -2 30 -2 40 0 9 3 -1 5 -23 4 -22 0 -30 -2 -17 -4z"/>
<path d="M6233 1163 c9 -2 25 -2 35 0 9 3 1 5 -18 5 -19 0 -27 -2 -17 -5z"/>
<path d="M3068 1063 c7 -3 16 -2 19 1 4 3 -2 6 -13 5 -11 0 -14 -3 -6 -6z"/>
<path d="M2980 1034 c-69 -14 -152 -29 -185 -34 -136 -20 -192 -35 -187 -49 3
-10 -2 -11 -19 -6 -13 3 -19 3 -13 -2 6 -4 15 -23 19 -42 l7 -33 60 6 c80 9
88 14 88 46 0 22 6 30 31 39 18 6 32 11 33 11 1 0 1 -17 1 -37 0 -32 3 -38 20
-35 11 2 38 5 60 6 74 6 72 5 55 16 -9 5 -19 5 -27 -2 -8 -6 -15 -9 -18 -6 -2
2 4 12 15 21 11 9 20 13 20 7 0 -5 33 -8 74 -7 41 1 69 6 62 10 -6 5 -2 7 11
5 17 -2 27 7 47 45 14 26 26 52 26 58 0 14 -42 10 -180 -17z m103 -41 c-7 -2
-21 -2 -30 0 -10 3 -4 5 12 5 17 0 24 -2 18 -5z"/>
<path d="M2326 915 c-76 -11 -84 -19 -85 -87 -1 -31 3 -38 18 -38 20 0 31 18
31 53 0 20 5 22 59 24 51 1 60 -2 64 -18 5 -17 11 -19 49 -13 23 3 59 10 79
15 33 8 35 11 31 43 l-4 34 -86 -1 c-48 -1 -118 -6 -156 -12z"/>
<path d="M8600 849 c-75 -19 -100 -21 -101 -7 -1 7 -4 2 -8 -12 -4 -14 -7 -26
-6 -27 0 -1 25 4 55 12 30 8 67 15 83 15 15 0 27 4 27 10 0 5 7 6 17 3 11 -4
14 -3 9 5 -8 14 -26 14 -76 1z"/>
<path d="M6257 659 c7 -7 15 -10 18 -7 3 3 -2 9 -12 12 -14 6 -15 5 -6 -5z"/>
<path d="M6294 621 c-30 -18 -52 -41 -40 -41 3 0 20 9 38 20 35 21 83 26 107
11 8 -5 20 -22 28 -38 l13 -28 -5 27 c-5 26 -4 27 32 23 l38 -5 -38 10 c-21 6
-48 17 -60 25 -29 20 -76 19 -113 -4z"/>
<path d="M7338 603 c7 -3 16 -2 19 1 4 3 -2 6 -13 5 -11 0 -14 -3 -6 -6z"/>
<path d="M3455 586 c11 -7 31 -16 45 -20 l25 -7 -24 20 c-13 12 -33 21 -44 21
-21 0 -21 0 -2 -14z"/>
<path d="M6342 583 c2 -9 8 -18 15 -20 7 -3 9 3 6 16 -6 25 -26 28 -21 4z"/>
<path d="M7383 593 c9 -2 23 -2 30 0 6 3 -1 5 -18 5 -16 0 -22 -2 -12 -5z"/>
<path d="M7448 583 c7 -3 16 -2 19 1 4 3 -2 6 -13 5 -11 0 -14 -3 -6 -6z"/>
<path d="M6630 540 c8 -5 20 -10 25 -10 6 0 3 5 -5 10 -8 5 -19 10 -25 10 -5
0 -3 -5 5 -10z"/>
<path d="M4350 532 c8 -5 26 -13 40 -16 17 -5 20 -4 10 2 -8 5 -26 13 -40 16
-17 5 -20 4 -10 -2z"/>
<path d="M3630 500 c8 -5 20 -10 25 -10 6 0 3 5 -5 10 -8 5 -19 10 -25 10 -5
0 -3 -5 5 -10z"/>
<path d="M6746 495 c17 -7 44 -16 60 -20 25 -4 24 -3 -6 8 -19 8 -46 17 -60
20 -19 5 -17 3 6 -8z"/>
<path d="M3737 459 c7 -7 15 -10 18 -7 3 3 -2 9 -12 12 -14 6 -15 5 -6 -5z"/>
<path d="M6848 463 c7 -3 16 -2 19 1 4 3 -2 6 -13 5 -11 0 -14 -3 -6 -6z"/>
<path d="M3780 440 c8 -5 20 -10 25 -10 6 0 3 5 -5 10 -8 5 -19 10 -25 10 -5
0 -3 -5 5 -10z"/>
<path d="M7883 433 c9 -2 23 -2 30 0 6 3 -1 5 -18 5 -16 0 -22 -2 -12 -5z"/>
<path d="M3860 411 c8 -5 47 -19 85 -31 89 -29 307 -110 320 -120 18 -14 146
-62 151 -57 3 3 -21 15 -53 26 -32 12 -69 28 -83 35 -41 23 -177 75 -304 117
-123 40 -142 45 -116 30z"/>
<path d="M7898 413 c7 -3 16 -2 19 1 4 3 -2 6 -13 5 -11 0 -14 -3 -6 -6z"/>
<path d="M5308 383 c7 -3 16 -2 19 1 4 3 -2 6 -13 5 -11 0 -14 -3 -6 -6z"/>
<path d="M6950 380 c-9 -6 -10 -10 -3 -10 6 0 15 5 18 10 8 12 4 12 -15 0z"/>
<path d="M5258 363 c7 -3 16 -2 19 1 4 3 -2 6 -13 5 -11 0 -14 -3 -6 -6z"/>
<path d="M5218 353 c7 -3 16 -2 19 1 4 3 -2 6 -13 5 -11 0 -14 -3 -6 -6z"/>
<path d="M5168 343 c6 -2 18 -2 25 0 6 3 1 5 -13 5 -14 0 -19 -2 -12 -5z"/>
<path d="M5128 333 c7 -3 16 -2 19 1 4 3 -2 6 -13 5 -11 0 -14 -3 -6 -6z"/>
<path d="M6456 307 c-16 -12 -14 -13 18 -9 20 2 36 8 36 13 0 13 -34 11 -54
-4z"/>
<path d="M6191 251 c-41 -21 -50 -29 -37 -34 9 -4 15 -3 12 2 -3 4 13 16 35
26 22 10 42 22 45 27 7 11 6 11 -55 -21z"/>
<path d="M6370 270 c-8 -5 -10 -10 -5 -10 6 0 17 5 25 10 8 5 11 10 5 10 -5 0
-17 -5 -25 -10z"/>
<path d="M6275 235 c-25 -12 -26 -14 -5 -9 28 7 60 23 45 23 -5 0 -23 -6 -40
-14z"/>
<path d="M6170 195 c-58 -31 -40 -31 25 0 28 13 43 24 35 24 -8 0 -35 -11 -60
-24z"/>
<path d="M4397 149 c7 -7 15 -10 18 -7 3 3 -2 9 -12 12 -14 6 -15 5 -6 -5z"/>
<path d="M4654 120 c28 -11 51 -18 53 -16 5 5 -74 36 -90 36 -6 -1 10 -10 37
-20z"/>
<path d="M5878 73 c7 -3 16 -2 19 1 4 3 -2 6 -13 5 -11 0 -14 -3 -6 -6z"/>
<path d="M5630 35 c-92 -32 -94 -33 -50 -34 25 0 56 6 69 13 13 7 31 12 40 11
12 -2 12 -1 1 3 -9 3 -3 10 20 23 48 25 31 22 -80 -16z"/>
<path d="M5745 40 c-13 -6 -15 -9 -5 -9 8 0 22 4 30 9 18 12 2 12 -25 0z"/>
<path d="M4925 30 c-3 -5 -2 -10 4 -10 5 0 13 5 16 10 3 6 2 10 -4 10 -5 0
-13 -4 -16 -10z"/>
<path d="M5386 24 c-26 -9 -46 -17 -44 -19 6 -6 81 15 93 26 11 11 11 11 -49
-7z"/>
<path d="M4875 10 c11 -5 27 -9 35 -9 9 0 8 4 -5 9 -11 5 -27 9 -35 9 -9 0 -8
-4 5 -9z"/>
<path d="M4965 10 c11 -5 29 -9 40 -9 l20 0 -20 9 c-11 5 -29 9 -40 9 l-20 0
20 -9z"/>
</g>
</svg>
